<?xml version="1.0" standalone="no"?>
<!DOCTYPE svg PUBLIC "-//W3C//DTD SVG 20010904//EN"
 "http://www.w3.org/TR/2001/REC-SVG-20010904/DTD/svg10.dtd">
<svg version="1.0" xmlns="http://www.w3.org/2000/svg"
 width="230.000000pt" height="186.000000pt" viewBox="0 0 230.000000 186.000000"
 preserveAspectRatio="xMidYMid meet">

<g transform="translate(0.000000,186.000000) scale(0.100000,-0.100000)"
fill="#000000" stroke="none">
<path d="M1101 1779 c-46 -47 -49 -60 -22 -95 14 -18 18 -34 14 -60 -5 -28 -1
-40 17 -59 23 -24 50 -33 50 -17 0 4 -9 13 -20 20 -15 9 -20 23 -20 55 0 24
-7 52 -15 63 -20 26 -19 47 6 78 25 32 49 34 49 3 0 -13 4 -27 9 -32 5 -6 5
-39 0 -79 -5 -38 -6 -73 -3 -77 9 -15 23 -10 23 9 0 9 5 49 12 87 11 64 10 73
-8 105 -11 19 -27 36 -36 38 -9 2 -34 -16 -56 -39z"/>
<path d="M1420 1764 c-38 -43 -53 -80 -46 -110 4 -13 0 -27 -9 -34 -11 -9 -12
-16 -2 -31 15 -25 37 -24 37 0 0 11 23 47 50 80 46 55 64 101 40 101 -5 0 -10
7 -10 15 0 26 -27 16 -60 -21z m23 -53 c-17 -14 -33 -33 -36 -41 -4 -10 -6 -9
-6 6 -1 31 36 75 56 67 14 -5 11 -11 -14 -32z"/>
<path d="M800 1773 c-19 -3 -38 -10 -42 -16 -16 -26 -7 -67 22 -100 26 -31 28
-36 15 -53 -18 -24 -19 -38 -2 -31 23 9 43 -9 29 -26 -22 -27 2 -27 30 0 33
32 34 33 9 60 -19 20 -19 21 5 68 36 71 28 110 -19 103 -7 0 -28 -3 -47 -5z
m60 -43 c0 -12 -7 -35 -16 -52 l-16 -30 -24 23 c-28 26 -32 65 -6 72 43 11 62
7 62 -13z"/>
<path d="M424 1730 c-26 -10 -54 -48 -54 -72 0 -9 9 -20 20 -23 12 -4 20 -15
20 -28 0 -31 25 -64 72 -93 51 -32 68 -21 44 29 -9 19 -16 46 -16 60 0 14 -4
29 -10 32 -5 3 -10 20 -10 36 0 36 -16 69 -33 68 -7 0 -22 -4 -33 -9z m36 -63
c0 -24 5 -48 11 -54 6 -6 8 -21 4 -34 -7 -22 -8 -22 -21 -4 -8 10 -14 29 -14
41 0 12 -10 28 -22 36 l-22 14 22 22 c32 32 42 27 42 -21z"/>
<path d="M448 1383 c-17 -19 -18 -28 -44 -233 -17 -146 -24 -344 -12 -400 4
-19 12 -66 18 -105 16 -98 38 -147 64 -143 18 3 21 10 21 48 0 25 -4 68 -8 96
l-7 51 58 17 c105 29 106 28 132 -69 25 -93 46 -118 74 -89 21 20 20 38 -5
131 -21 81 -86 276 -100 304 -5 9 -21 65 -38 125 -47 176 -93 284 -121 284 -9
0 -24 -8 -32 -17z m92 -312 c13 -66 30 -131 45 -166 27 -62 27 -62 -20 -74
-24 -6 -58 -11 -76 -11 l-31 0 5 103 c7 127 17 237 23 256 7 21 44 -53 54
-108z"/>
<path d="M1009 1353 c-8 -22 -7 -39 5 -73 33 -96 48 -235 44 -404 -4 -176 -13
-209 -60 -236 -72 -40 -119 63 -139 300 -6 74 -9 177 -6 227 3 52 1 95 -4 98
-5 4 -9 15 -9 26 0 26 -30 37 -45 16 -14 -20 -29 -148 -26 -232 2 -52 23 -239
35 -315 15 -91 62 -188 105 -219 39 -28 77 -26 135 7 62 36 73 67 87 242 17
209 -5 436 -52 548 -22 51 -53 58 -70 15z"/>
<path d="M1435 1341 c-16 -3 -40 -13 -53 -21 -22 -14 -82 -93 -82 -108 0 -4
-13 -42 -30 -84 -39 -104 -60 -302 -41 -405 26 -147 96 -233 180 -219 56 9 98
36 119 76 10 19 25 46 35 60 16 25 57 207 57 256 0 28 -17 65 -34 76 -6 4 -71
8 -144 8 l-134 0 7 43 c10 66 53 172 80 197 22 20 31 22 83 17 50 -5 62 -3 76
12 48 53 -24 110 -119 92z m104 -488 c-1 -42 -26 -130 -43 -158 -38 -58 -58
-75 -92 -75 -47 0 -85 51 -101 132 -22 115 -21 116 135 117 91 1 102 -1 101
-16z"/>
<path d="M66 1226 c-22 -20 -26 -32 -26 -83 0 -33 -7 -80 -16 -104 -25 -69
-19 -294 11 -484 3 -16 8 -70 11 -120 6 -95 23 -139 52 -133 19 4 21 42 8 169
l-9 77 51 16 c28 10 66 16 84 14 31 -3 33 -6 49 -63 22 -84 56 -147 77 -143
22 4 28 68 11 100 -13 24 -119 327 -145 413 -8 28 -22 73 -30 100 -8 28 -19
70 -25 95 -5 25 -16 68 -25 95 -9 28 -18 56 -20 63 -5 19 -31 14 -58 -12z m67
-273 c4 -6 18 -51 32 -100 14 -48 32 -100 40 -115 8 -14 15 -30 15 -36 0 -9
-130 -46 -137 -38 -11 11 -14 250 -4 315 15 98 24 107 36 41 5 -30 13 -60 18
-67z"/>
<path d="M1756 1223 c-7 -16 -21 -84 -30 -153 -9 -69 -20 -159 -25 -200 -6
-41 -17 -115 -26 -165 -8 -49 -18 -123 -22 -162 -5 -63 -4 -73 11 -79 33 -13
55 26 71 121 8 50 15 105 15 123 0 32 1 32 48 32 46 -1 130 -14 136 -21 1 -2
-1 -42 -5 -89 -4 -47 -5 -109 -2 -137 5 -46 9 -53 27 -53 46 0 48 9 52 186 2
93 6 183 8 199 4 25 10 364 7 403 -2 20 -29 14 -45 -10 -13 -20 -21 -120 -30
-343 -1 -16 -5 -32 -9 -34 -4 -1 -43 0 -88 4 l-80 7 4 68 c2 37 7 72 10 77 4
6 14 57 22 113 14 95 14 104 -1 121 -23 25 -31 24 -48 -8z"/>
<path d="M2237 1203 c-8 -16 -20 -75 -26 -133 -6 -58 -17 -143 -23 -190 -18
-135 -11 -181 25 -167 17 6 37 90 43 176 2 31 8 108 14 171 13 154 13 170 -5
170 -8 0 -21 -12 -28 -27z"/>
<path d="M2161 531 c-10 -10 -22 -38 -26 -62 -7 -39 -5 -45 20 -66 44 -38 88
-14 101 53 5 25 1 41 -16 64 -25 34 -52 38 -79 11z"/>
<path d="M933 338 c-22 -24 -93 -154 -93 -170 0 -5 14 -14 30 -19 19 -7 30
-18 30 -30 0 -12 7 -19 20 -19 14 0 20 7 20 22 0 11 10 35 23 52 39 52 40 65
7 98 -35 35 -37 44 -11 53 12 4 18 12 14 21 -7 19 -16 18 -40 -8z m20 -86 c15
-17 15 -21 -9 -54 -23 -32 -29 -35 -45 -25 -24 15 -24 24 1 65 23 37 31 39 53
14z"/>
<path d="M1321 283 c-6 -21 -11 -42 -11 -47 0 -4 -11 -21 -25 -38 -14 -16 -25
-41 -25 -54 0 -14 -9 -42 -19 -63 -22 -42 -18 -55 22 -70 24 -9 35 -7 72 15
51 29 50 41 -6 78 -36 25 -38 28 -27 54 7 15 15 32 19 37 3 6 9 28 13 50 4 22
9 48 12 58 3 9 1 17 -5 17 -5 0 -15 -17 -20 -37z m-2 -200 l24 -16 -23 -19
c-40 -33 -67 -16 -47 30 12 26 16 27 46 5z"/>
<path d="M1576 227 c-21 -56 -21 -61 10 -113 21 -35 24 -47 14 -59 -6 -8 -9
-19 -5 -25 7 -11 23 -4 64 28 23 18 23 20 6 45 -10 15 -15 40 -13 59 2 23 -1
34 -12 36 -11 2 -16 -7 -18 -30 -3 -43 -9 -46 -22 -12 -11 28 -9 59 5 97 4 9
3 17 -3 17 -5 0 -17 -19 -26 -43z m67 -148 c-7 -7 -12 -3 -15 16 -5 25 -4 25
10 11 12 -11 13 -19 5 -27z"/>
</g>
</svg>
