<svg version="1.2" xmlns="http://www.w3.org/2000/svg" viewBox="0 0 90 90" width="90" height="90">
	<title>on-switch-svg</title>
	<style>
		tspan { white-space:pre } 
		.s0 { fill: #000000 } 
	</style>
	<path id="Layer" fill-rule="evenodd" class="s0" d="m90 7.5v75c0 4.1-3.4 7.5-7.5 7.5h-75c-4.1 0-7.5-3.4-7.5-7.5v-75c0-4.1 3.4-7.5 7.5-7.5h75c4.1 0 7.5 3.4 7.5 7.5zm-5 0c0-1.4-1.1-2.5-2.5-2.5h-75c-1.4 0-2.5 1.1-2.5 2.5v75c0 1.4 1.1 2.5 2.5 2.5h75c1.4 0 2.5-1.1 2.5-2.5z"/>
	<path id="Layer" fill-rule="evenodd" class="s0" d="m63.7 27.5c0 0 0 0 0 0.1 0 0.1 0 0.3-0.1 0.4l-7.3 17.3v24.7c0 0.7-0.6 1.3-1.3 1.3h-20c-0.7 0-1.3-0.6-1.3-1.3v-50c0-0.2 0-0.3 0.1-0.5 0.2-0.3 0.4-0.6 0.7-0.7 0.2-0.1 0.3-0.1 0.5-0.1h20c0.3 0 0.7 0.2 0.9 0.4l7.5 7.5c0.1 0.1 0.1 0.3 0.2 0.4v0.1c0.1 0.1 0.1 0.2 0.1 0.3 0 0.1 0 0.1 0 0.1zm0-0.1q0.1 0.1 0 0.1 0-0.1 0-0.1zm-3.1 1.4h-17.3l-6.4 15h17.3zm-24.4-5.8v15.9l4.8-11.1zm18.3-1.7h-16.5l5 5h16.5zm-0.7 47.5v-22.5h-17.5v22.5z"/>
</svg>