<svg version="1.2" xmlns="http://www.w3.org/2000/svg" viewBox="0 0 90 90" width="90" height="90">
	<title>off-switch-svg</title>
	<style>
		tspan { white-space:pre } 
		.s0 { fill: #000000 } 
		.t1 { font-size: 5px;fill: #000000;font-family: "' Helvetica  Neue'" } 
	</style>
	<path id="Layer" fill-rule="evenodd" class="s0" d="m0 82.5v-75c0-4.1 3.4-7.5 7.5-7.5h75c4.1 0 7.5 3.4 7.5 7.5v75c0 4.1-3.4 7.5-7.5 7.5h-75c-4.1 0-7.5-3.4-7.5-7.5zm5 0c0 1.4 1.1 2.5 2.5 2.5h75c1.4 0 2.5-1.1 2.5-2.5v-75c0-1.4-1.1-2.5-2.5-2.5h-75c-1.4 0-2.5 1.1-2.5 2.5z"/>
	<path id="Layer" fill-rule="evenodd" class="s0" d="m33.8 70.5c-0.1-0.2-0.1-0.3-0.1-0.5v-50c0-0.7 0.6-1.3 1.3-1.3h19.9c0.7 0 1.3 0.6 1.3 1.3v24.8l7.4 17.3c0.1 0.1 0.1 0.3 0.1 0.4 0 0.1 0 0.1 0 0.1 0 0.1-0.1 0.2-0.1 0.3v0.1c0 0.2-0.1 0.3-0.2 0.4l-7.5 7.5c-0.3 0.3-0.6 0.4-0.9 0.4h-20c-0.2 0-0.3 0-0.5-0.1-0.3-0.2-0.5-0.4-0.7-0.7zm25.7-6.7h-16.5l-5 5h16.5zm-18.5-1.6l-4.7-11.1v15.9zm13.2-15.9h-17.3l6.4 15h17.3zm-17.9-25v22.5h17.5v-22.5z"/>
	<text id="Created by Arthur Shlain" style="transform: matrix(1,0,0,1,-5,110)" >
		<tspan x="0" y="0" class="t1">Created by Arthur Shlain
</tspan>
	</text>
	<text id="from the Noun Project" style="transform: matrix(1,0,0,1,-5,115)" >
		<tspan x="0" y="0" class="t1">from the Noun Project
</tspan>
	</text>
</svg>