<svg xmlns="http://www.w3.org/2000/svg" xmlns:xlink="http://www.w3.org/1999/xlink" version="1.1" x="0px" y="0px" viewBox="0 0 100 125" enable-background="new 0 0 100 100" xml:space="preserve"><path d="M87.5,5h-75C8.4,5,5,8.4,5,12.5v75c0,4.1,3.4,7.5,7.5,7.5h75c4.1,0,7.5-3.4,7.5-7.5v-75C95,8.4,91.6,5,87.5,5z M90,87.5  c0,1.4-1.1,2.5-2.5,2.5h-75c-1.4,0-2.5-1.1-2.5-2.5v-75c0-1.4,1.1-2.5,2.5-2.5h75c1.4,0,2.5,1.1,2.5,2.5V87.5z"/><path d="M68.7,32.4c0-0.1,0-0.2-0.1-0.3c0,0,0-0.1,0-0.1c-0.1-0.1-0.1-0.3-0.2-0.4c0,0,0,0,0,0l-7.5-7.5c-0.2-0.2-0.6-0.4-0.9-0.4  H40c-0.2,0-0.3,0-0.5,0.1c-0.3,0.1-0.5,0.4-0.7,0.7c-0.1,0.2-0.1,0.3-0.1,0.5v50c0,0.7,0.6,1.3,1.3,1.3h20c0.7,0,1.3-0.6,1.3-1.3  V50.3L68.6,33c0,0,0,0,0,0c0,0,0,0,0,0c0.1-0.1,0.1-0.3,0.1-0.4C68.7,32.5,68.8,32.5,68.7,32.4C68.8,32.5,68.7,32.5,68.7,32.4z   M59.2,48.8H41.9l6.4-15h17.3L59.2,48.8z M46,32.8l-4.8,11.1V28L46,32.8z M64.5,31.3H48l-5-5h16.5L64.5,31.3z M41.3,73.8V51.3h17.5  v22.5H41.3z"/><text x="0" y="115" fill="#000000" font-size="5px" font-weight="bold" font-family="'Helvetica Neue', Helvetica, Arial-Unicode, Arial, Sans-serif">Created by Arthur Shlain</text><text x="0" y="120" fill="#000000" font-size="5px" font-weight="bold" font-family="'Helvetica Neue', Helvetica, Arial-Unicode, Arial, Sans-serif">from the Noun Project</text></svg>