<?xml version="1.0" encoding="UTF-8" standalone="no"?>
<!-- Created with Inkscape (http://www.inkscape.org/) -->

<svg
   version="1.1"
   id="svg2"
   width="257.33334"
   height="257.33334"
   viewBox="0 0 257.33334 257.33334"
   sodipodi:docname="snoopy-seeklogo.eps"
   xmlns:inkscape="http://www.inkscape.org/namespaces/inkscape"
   xmlns:sodipodi="http://sodipodi.sourceforge.net/DTD/sodipodi-0.dtd"
   xmlns="http://www.w3.org/2000/svg"
   xmlns:svg="http://www.w3.org/2000/svg">
  <defs
     id="defs6" />
  <sodipodi:namedview
     id="namedview4"
     pagecolor="#ffffff"
     bordercolor="#000000"
     borderopacity="0.25"
     inkscape:showpageshadow="2"
     inkscape:pageopacity="0.0"
     inkscape:pagecheckerboard="0"
     inkscape:deskcolor="#d1d1d1" />
  <g
     id="g8"
     inkscape:groupmode="layer"
     inkscape:label="ink_ext_XXXXXX"
     transform="matrix(1.3333333,0,0,-1.3333333,0,257.33333)">
    <g
       id="g10"
       transform="scale(0.1)">
      <path
         d="M 0,1927.56 H 1927.56 V 0 H 0 v 1927.56"
         style="fill:#ffffff;fill-opacity:1;fill-rule:evenodd;stroke:none"
         id="path12" />
      <path
         d="m 719.926,1104.21 c 0,0 -33.461,-107.433 -142.66,-95.1 -109.203,12.33 -163.805,132.09 -179.657,211.35 0,0 -15.851,12.33 -15.851,-36.98 0,-49.32 -47.555,-35.23 -42.274,8.8 5.289,44.03 44.036,66.93 44.036,66.93 0,0 19.375,45.79 28.179,45.79 0,0 -5.281,59.89 44.035,133.86 0,0 17.614,45.8 14.09,86.31 0,0 -3.523,10.56 12.328,19.37 0,0 14.094,59.89 42.27,77.5 28.18,17.61 31.703,49.32 31.703,49.32 0,0 15.852,26.41 84.543,52.84 0,0 105.68,65.16 248.344,0 0,0 47.554,-10.58 63.406,-21.14 0,0 3.527,42.27 26.422,58.12 22.89,15.86 45.79,-19.38 58.12,-75.73 l 10.57,-14.09 c 0,0 183.17,14.09 237.77,3.52 54.61,-10.57 153.24,-42.27 188.46,-144.43 0,0 44.04,40.51 81.03,8.8 36.98,-31.7 58.12,-93.34 -15.86,-126.8 0,0 -14.09,-3.53 -36.99,-1.77 0,0 14.1,-56.36 -61.64,-139.14 -75.74,-82.78 -269.48,-165.56 -304.7,-193.74 -35.23,-28.18 -82.79,-52.85 -28.19,-93.355 0,0 12.33,-5.281 8.81,-29.937 0,0 109.2,-107.438 135.62,-193.742 26.42,-86.309 22.89,-170.852 -47.56,-262.438 0,0 -10.56,7.047 1.77,-103.914 0,0 153.23,-7.047 216.64,-56.363 63.4,-49.317 40.5,-123.289 -42.28,-126.813 l -21.13,7.043 c 0,0 -19.38,-26.422 -54.6,-35.226 -35.23,-8.805 -42.27,-19.371 -95.11,-19.371 -52.84,0 -357.547,-10.571 -443.847,33.464 -86.305,44.028 42.269,130.336 126.812,133.86 0,0 22.899,5.277 22.899,24.656 0,0 -3.524,42.27 15.847,79.258 0,0 12.328,35.226 -19.371,35.226 -31.703,0 -82.781,59.883 -82.781,59.883 0,0 -8.805,-22.894 -68.691,-19.371 0,0 -54.598,-24.66 -65.168,-31.703 -10.567,-7.047 -66.93,-3.523 -86.305,12.328 -19.371,15.852 -8.805,31.703 81.023,58.125 89.825,26.418 118.004,49.313 118.004,49.313 0,0 12.332,107.445 29.942,130.336 0,0 7.046,31.699 31.703,59.886 0,0 1.765,28.18 17.617,47.551 0,0 21.133,45.797 12.328,65.172 0,0 -14.09,-0.004 -17.613,17.609 -3.528,17.618 24.656,22.899 24.656,22.899 0,0 1.762,89.824 -65.168,116.244 -66.93,26.42 -116.242,38.75 -121.531,45.79"
         style="fill:#231f20;fill-opacity:1;fill-rule:nonzero;stroke:none"
         id="path14" />
      <path
         d="m 651.238,1401.88 c 0,0 58.125,26.42 82.778,54.6 24.66,28.18 54.601,15.85 81.023,52.84 0,0 0,7.04 31.703,15.85 0,0 19.371,19.37 42.27,22.9 l 59.886,56.36 c 0,0 -0.003,51.07 3.52,63.4 0,0 -17.613,19.37 -54.598,17.62 0,0 -84.547,65.16 -204.312,29.94 -119.766,-35.23 -107.438,-49.32 -118.004,-70.45 0,0 -49.32,-31.71 -72.215,-96.87 0,0 -19.375,-15.86 -24.66,-102.16 0,0 -65.168,-103.92 -54.602,-221.93 10.571,-118 84.547,-153.23 96.875,-160.27 0,0 14.09,5.28 -22.902,52.84 0,0 -12.324,35.22 -28.176,44.03 0,0 0,42.27 -10.57,42.27 -10.566,0 1.762,51.08 -8.805,61.65 -10.566,10.56 15.852,49.31 15.852,49.31 0,0 1.762,8.81 1.762,29.94 0,21.14 26.421,77.5 42.273,96.88 0,0 0,-33.47 17.609,-1.77 0,0 1.762,-12.32 33.465,-26.41 0,0 35.231,-17.62 38.75,-44.04 3.524,-26.42 49.313,-14.09 61.645,-119.77 0,0 7.047,-15.85 14.09,-21.13 7.046,-5.28 10.57,-22.9 5.285,-49.32 -5.285,-26.42 15.855,-70.45 -42.27,-103.91 0,0 -45.797,-10.57 -68.691,-15.86 0,0 -45.797,0 -10.571,-10.56 35.227,-10.57 88.067,-22.9 128.575,56.35 0,0 26.418,29.95 17.617,98.64 0,0 0,42.27 -17.617,63.41 0,0 10.57,22.9 -47.555,105.67 0,0 -19.375,29.95 -33.465,49.32 -14.09,19.38 1.762,29.94 44.035,-19.37"
         style="fill:#ffffff;fill-opacity:1;fill-rule:nonzero;stroke:none"
         id="path16" />
      <path
         d="m 670.613,1361.37 c 0,0 91.586,66.93 107.438,82.78 15.855,15.85 142.664,81.02 169.082,118.01 0,0 7.047,-65.18 26.422,-86.31 19.375,-21.13 52.835,-47.55 73.975,15.85 21.13,63.41 -1.76,160.28 -1.76,160.28 0,0 190.22,17.61 243.05,3.52 52.85,-14.09 156.76,-68.69 181.42,-186.7 24.66,-118 -45.79,-179.65 -72.21,-204.3 -26.42,-24.66 -75.74,-51.09 -103.92,-72.22 -28.18,-21.13 -51.08,-15.85 -61.65,-21.13 -10.56,-5.29 -12.32,15.85 -42.26,-5.29 -29.95,-21.13 -8.81,-22.9 -51.08,-3.52 -42.27,19.37 -59.89,3.52 -66.93,3.52 -7.05,0 -8.81,-3.52 -40.51,28.18 -31.707,31.71 -33.469,17.62 -40.512,17.62 -7.047,0 -3.523,24.65 -21.137,29.94 -17.613,5.28 -35.226,-10.57 -36.988,-38.75 -1.762,-28.19 7.047,-65.17 45.797,-88.06 38.75,-22.9 31.7,-22.9 56.36,-22.9 24.66,0 66.93,3.52 75.73,5.28 0,0 8.82,-3.52 -8.8,-15.85 -17.61,-12.33 -56.36,-45.79 -42.27,-84.543 0,0 17.61,-15.851 -10.57,-21.136 -28.18,-5.286 -86.306,-8.805 -112.724,-31.703 0,0 -3.523,-3.524 -5.285,33.46 -1.758,36.992 -7.043,79.262 -130.332,119.772 0,0 -51.078,3.53 -73.976,29.94 0,0 17.613,82.78 -14.086,133.86 0,0 0,42.27 -42.274,100.4"
         style="fill:#ffffff;fill-opacity:1;fill-rule:nonzero;stroke:none"
         id="path18" />
      <path
         d="m 998.211,1185.23 c 0,0 -22.895,10.58 -28.18,10.58 -5.281,0 -26.422,-14.1 -5.281,-36.99 21.133,-22.9 17.613,-14.09 17.613,-14.09 l 15.848,40.5"
         style="fill:#ffffff;fill-opacity:1;fill-rule:nonzero;stroke:none"
         id="path20" />
      <path
         d="m 1012.3,1179.95 -19.37,-42.27 c 0,0 38.75,-31.7 77.5,-26.42 l -8.81,31.7 c 0,0 -17.62,0 -49.32,36.99"
         style="fill:#ffffff;fill-opacity:1;fill-rule:nonzero;stroke:none"
         id="path22" />
      <path
         d="m 1081,1150.01 8.8,-36.99 c 0,0 42.27,-1.76 66.93,7.05 24.66,8.81 -26.42,28.18 -40.51,35.22 -14.09,7.05 -35.22,-5.28 -35.22,-5.28"
         style="fill:#ffffff;fill-opacity:1;fill-rule:nonzero;stroke:none"
         id="path24" />
      <path
         d="M 1022.87,966.836 980.602,956.27 c 0,0 -14.094,-17.614 40.508,0 0,0 12.33,8.808 1.76,10.566"
         style="fill:#ffffff;fill-opacity:1;fill-rule:nonzero;stroke:none"
         id="path26" />
      <path
         d="m 1489.61,1484.66 c 0,0 63.41,36.98 58.13,-36.99 0,0 33.46,-15.85 14.09,58.12 0,0 -40.51,47.56 -66.93,17.62 -26.42,-29.95 -14.09,-31.71 -5.29,-38.75"
         style="fill:#ffffff;fill-opacity:1;fill-rule:nonzero;stroke:none"
         id="path28" />
      <path
         d="m 989.406,1734.76 c 0,0 24.654,-29.94 24.654,-49.31 0,0 -1.76,56.36 -24.654,49.31"
         style="fill:#ffffff;fill-opacity:1;fill-rule:nonzero;stroke:none"
         id="path30" />
      <path
         d="m 1024.63,1636.13 -3.52,-8.81 10.57,-5.28 c 0,0 3.52,15.85 -7.05,14.09"
         style="fill:#ffffff;fill-opacity:1;fill-rule:nonzero;stroke:none"
         id="path32" />
      <path
         d="m 1007.02,1588.57 c 0,0 -15.852,-3.52 -5.29,-8.8 10.57,-5.29 5.29,8.8 5.29,8.8"
         style="fill:#ffffff;fill-opacity:1;fill-rule:nonzero;stroke:none"
         id="path34" />
      <path
         d="m 1033.44,1592.1 c 0,0 -8.81,-3.53 3.52,-10.57 12.33,-7.05 -3.52,10.57 -3.52,10.57"
         style="fill:#ffffff;fill-opacity:1;fill-rule:nonzero;stroke:none"
         id="path36" />
      <path
         d="m 1036.96,1565.68 c 0,0 -12.33,-8.81 0,-17.61 12.33,-8.81 5.29,17.61 0,17.61"
         style="fill:#ffffff;fill-opacity:1;fill-rule:nonzero;stroke:none"
         id="path38" />
      <path
         d="m 991.168,1676.64 c 1.352,5.4 -10.566,-31.7 0,-52.84 10.562,-21.13 -1.762,45.79 0,52.84"
         style="fill:#ffffff;fill-opacity:1;fill-rule:nonzero;stroke:none"
         id="path40" />
      <path
         d="m 966.508,1708.34 c 0,0 -24.656,-14.09 -8.805,-21.13 15.852,-7.05 8.805,21.13 8.805,21.13"
         style="fill:#ffffff;fill-opacity:1;fill-rule:nonzero;stroke:none"
         id="path42" />
      <path
         d="m 520.902,1398.35 c 0,0 -29.941,-33.46 0,-44.03 29.942,-10.57 0,44.03 0,44.03"
         style="fill:#ffffff;fill-opacity:1;fill-rule:nonzero;stroke:none"
         id="path44" />
      <path
         d="m 513.852,1338.47 c 0,0 -19.368,-45.79 -1.758,-38.75 17.613,7.05 1.758,38.75 1.758,38.75"
         style="fill:#ffffff;fill-opacity:1;fill-rule:nonzero;stroke:none"
         id="path46" />
      <path
         d="m 494.484,1248.64 c 0,0 -15.855,-29.94 -8.808,-47.55 7.047,-17.61 12.328,-5.28 8.808,47.55"
         style="fill:#ffffff;fill-opacity:1;fill-rule:nonzero;stroke:none"
         id="path48" />
      <path
         d="m 538.512,1195.81 c -1.246,6.22 -24.66,-26.42 -14.09,-26.42 10.57,0 17.613,8.8 14.09,26.42"
         style="fill:#ffffff;fill-opacity:1;fill-rule:nonzero;stroke:none"
         id="path50" />
      <path
         d="m 533.23,1153.54 c 0,0 -26.421,-42.28 17.614,-68.7 0,0 3.523,1.77 -7.047,17.62 -10.567,15.85 -12.328,36.98 -7.043,38.74 5.281,1.76 0,19.38 -3.524,12.34"
         style="fill:#ffffff;fill-opacity:1;fill-rule:nonzero;stroke:none"
         id="path52" />
      <path
         d="m 573.742,1142.96 c 0,0 -14.094,-5.28 -7.047,-10.57 7.047,-5.28 7.047,10.57 7.047,10.57"
         style="fill:#ffffff;fill-opacity:1;fill-rule:nonzero;stroke:none"
         id="path54" />
      <path
         d="m 651.238,1192.28 c 0,0 5.282,-65.17 -5.285,-81.02 -10.57,-15.85 17.613,0 17.613,31.7 0,31.71 -12.328,49.32 -12.328,49.32"
         style="fill:#ffffff;fill-opacity:1;fill-rule:nonzero;stroke:none"
         id="path56" />
      <path
         d="m 619.531,1206.37 c 0,0 -29.937,-26.42 -8.804,-26.42 21.136,0 8.804,26.42 8.804,26.42"
         style="fill:#ffffff;fill-opacity:1;fill-rule:nonzero;stroke:none"
         id="path58" />
      <path
         d="m 603.684,1220.46 c 0,0 -8.809,31.71 -24.661,22.9 -15.851,-8.81 0,-3.52 24.661,-22.9"
         style="fill:#ffffff;fill-opacity:1;fill-rule:nonzero;stroke:none"
         id="path60" />
      <path
         d="m 582.547,1222.23 c 0,0 -15.852,-8.82 -1.762,-12.34 14.09,-3.52 1.762,12.34 1.762,12.34"
         style="fill:#ffffff;fill-opacity:1;fill-rule:nonzero;stroke:none"
         id="path62" />
      <path
         d="m 626.578,1259.21 c 0,0 -12.328,3.52 -8.805,-17.61 3.52,-21.14 10.567,-29.94 22.895,-24.66 12.332,5.29 -14.09,42.27 -14.09,42.27"
         style="fill:#ffffff;fill-opacity:1;fill-rule:nonzero;stroke:none"
         id="path64" />
      <path
         d="m 589.594,1333.19 c 0,0 1.761,-47.56 15.851,-58.13 14.086,-10.56 -1.757,45.8 -15.851,58.13"
         style="fill:#ffffff;fill-opacity:1;fill-rule:nonzero;stroke:none"
         id="path66" />
      <path
         d="m 933.043,912.234 c 0,0 66.93,8.805 89.827,26.422 22.9,17.614 72.21,3.52 72.21,3.52 0,0 119.77,-130.34 135.62,-211.356 15.85,-81.019 8.81,-170.843 -58.12,-220.16 0,0 1.76,-100.398 10.57,-118.012 8.81,-17.609 12.33,-21.132 51.08,-21.132 38.74,0 283.56,-51.075 181.41,-133.856 0,0 -19.37,-8.812 -40.51,12.324 0,0 5.28,73.973 -116.24,89.829 -121.53,15.851 -155,15.851 -155,15.851 l -7.04,84.543 c 0,0 -12.33,42.27 -21.14,0 -8.81,-42.273 7.04,-100.394 7.04,-100.394 0,0 170.85,-5.286 225.45,-42.274 54.6,-36.988 73.98,-68.691 0,-95.109 0,0 -7.04,0 -10.57,26.418 -3.52,26.422 -35.22,47.554 -47.55,47.554 -12.33,0 -14.09,-5.281 10.56,-21.132 24.66,-15.852 26.43,-51.075 15.86,-59.883 -10.57,-8.809 -52.84,-1.766 -58.12,-3.528 -5.29,-1.757 -24.66,-1.757 -26.42,33.469 -1.76,35.223 -33.46,22.895 -26.42,8.805 7.04,-14.09 36.98,-17.61 19.37,-44.031 -17.61,-26.418 -302.941,0 -385.722,24.656 -82.786,24.66 61.644,96.871 110.96,93.351 0,0 21.133,5.282 29.942,47.555 0,0 3.519,68.691 17.613,84.543 0,0 7.047,35.227 -33.465,49.316 0,0 -73.976,36.989 -82.781,84.54 0,0 -17.613,35.226 8.805,45.796 0,0 7.047,107.438 35.226,154.993 0,0 47.555,93.347 47.555,137.382"
         style="fill:#ffffff;fill-opacity:1;fill-rule:nonzero;stroke:none"
         id="path68" />
      <path
         d="m 800.945,582.871 c 0,0 -70.449,-36.988 -151.468,-58.125 0,0 -44.032,-24.656 -3.524,-12.328 0,0 17.613,3.527 3.524,-10.566 -14.094,-14.09 82.777,-19.375 144.429,59.882 0,0 17.61,26.422 7.039,21.137"
         style="fill:#ffffff;fill-opacity:1;fill-rule:nonzero;stroke:none"
         id="path70" />
      <path
         d="m 890.773,734.344 c 0,0 -8.804,-81.024 3.524,-119.77 0,0 -58.125,-36.988 -1.762,-86.304 56.36,-49.313 119.765,-72.211 181.415,12.328 0,0 40.51,35.23 -5.29,118.007 0,0 -22.89,45.797 -24.65,72.215 -1.76,26.418 -14.09,49.317 -14.09,-10.566 0,-59.887 22.9,-103.918 24.65,-116.246 1.76,-12.328 8.81,-51.082 -28.18,-68.692 0,0 -14.09,-8.804 -14.09,28.184 0,36.984 -14.089,0 -12.327,-24.664 1.757,-24.656 7.047,-31.699 -29.942,-22.895 -36.988,8.805 -31.703,8.805 -31.703,8.805 0,0 -12.324,8.813 12.328,12.332 0,0 0,22.895 5.289,40.508 5.282,17.613 -17.617,7.047 -17.617,-17.609 0,-24.661 -5.285,-36.989 -5.285,-36.989 0,0 -52.836,33.465 -31.703,77.496 l 21.137,7.047 c 0,0 12.328,14.086 0,29.942 -12.329,15.851 1.761,61.644 -21.137,59.882 0,0 10.57,45.797 -10.567,36.989"
         style="fill:#231f20;fill-opacity:1;fill-rule:nonzero;stroke:none"
         id="path72" />
    </g>
  </g>
</svg>
