<?xml version="1.0" encoding="UTF-8"?>
<svg version="1.1" xmlns="http://www.w3.org/2000/svg" width="257" height="257">
<path d="M0 0 C2.6875 0.4375 2.6875 0.4375 4.875 3.125 C6.37981403 5.87517737 7.56085317 8.52410049 8.6875 11.4375 C9.59927002 11.41655273 10.51104004 11.39560547 11.45043945 11.37402344 C14.8854414 11.30519707 18.31969388 11.25538904 21.75512695 11.21777344 C23.23213378 11.19785513 24.70906384 11.17070993 26.18579102 11.13574219 C37.78322423 10.86832087 48.31908456 11.81204557 57.6875 19.4375 C60.67909941 22.58048155 63.2805961 25.82714415 65.6875 29.4375 C66.26757812 29.28410156 66.84765625 29.13070312 67.4453125 28.97265625 C73.60839144 27.74207448 73.60839144 27.74207448 76.62109375 29.68359375 C79.45858653 32.73883177 80.5907701 34.92746963 81.375 39.0625 C80.49630321 43.37610243 79.20735545 44.83586771 75.6875 47.4375 C72.375 48.25 72.375 48.25 69.6875 48.4375 C69.48125 49.736875 69.275 51.03625 69.0625 52.375 C66.7306591 62.69015731 59.47438252 69.52653888 50.98828125 75.26171875 C43.4200602 80.03909772 35.57342179 84.30529719 27.66699219 88.49316406 C22.85483556 91.08052875 18.74698345 93.77406371 14.6875 97.4375 C15.26202746 101.36825644 15.26202746 101.36825644 17.6875 104.4375 C17.97238281 105.20964844 18.25726563 105.98179688 18.55078125 106.77734375 C19.87413859 109.87427278 21.51975374 111.60421594 23.875 114 C33.99250488 124.94975125 38.22863469 135.17830947 38.0078125 149.89453125 C37.41502117 156.45138173 35.44474519 162.14331877 31.4375 167.375 C28.70117155 172.16357478 29.37339207 177.0453139 29.6875 182.4375 C30.42613281 182.47488281 31.16476563 182.51226562 31.92578125 182.55078125 C42.88102846 183.26071468 54.52813398 184.63321323 62.1875 193.25 C64.08041321 197.27244057 64.01657511 199.215732 62.6875 203.4375 C59.79983439 206.86660291 57.43219387 207.62391882 53.125 208 C52.38121094 208.02191406 51.63742188 208.04382813 50.87109375 208.06640625 C48.59782104 208.27725178 48.59782104 208.27725178 46.84448242 209.85644531 C38.47885366 215.98839912 26.68745614 214.87494433 16.8125 214.75 C15.2501629 214.73931809 13.68782566 214.72865744 12.12548828 214.71801758 C3.58589658 214.63448571 -4.92838766 214.39588525 -13.4375 213.625 C-14.22753418 213.55514893 -15.01756836 213.48529785 -15.83154297 213.41333008 C-21.81455183 212.75761319 -28.93240853 211.81759147 -33.3125 207.4375 C-33.79052648 203.85230142 -33.61814653 201.97238143 -31.8125 198.8125 C-28.00706516 195.1973369 -23.86920583 192.91475176 -18.67578125 191.9453125 C-15.84507347 191.40809789 -13.77788329 190.94636846 -11.3125 189.4375 C-9.04729611 184.64860049 -8.3125 179.70602241 -8.3125 174.4375 C-9.8903125 173.81875 -9.8903125 173.81875 -11.5 173.1875 C-14.2478663 172.05891206 -15.39131279 171.35418362 -17.5 169.125 C-21.65761569 166.63043059 -24.8335254 167.71152285 -29.453125 168.65234375 C-32.44723083 169.37093398 -32.44723083 169.37093398 -35.5 171.0625 C-39.39133295 172.96492944 -43.04653758 173.03473474 -47.3125 172.4375 C-49.5859375 171.41796875 -49.5859375 171.41796875 -51.3125 170.4375 C-51.28125 168.12890625 -51.28125 168.12890625 -50.3125 165.4375 C-47.74929854 164.14064212 -45.51748452 163.23887336 -42.8125 162.375 C-41.34895632 161.85026604 -39.88541464 161.3255265 -38.421875 160.80078125 C-36.07509472 159.99627764 -33.80648982 159.31505636 -31.390625 158.73046875 C-28.70954001 157.96123128 -27.2894085 157.42813703 -25.3125 155.4375 C-23.8754124 151.50796359 -23.00444538 147.64369483 -22.203125 143.546875 C-21.30446879 139.02874632 -19.56549212 135.17555386 -17.55859375 131.04296875 C-16.20533899 128.21343608 -15.01012833 125.3613154 -13.875 122.4375 C-13.52566406 121.550625 -13.17632812 120.66375 -12.81640625 119.75 C-12.65011719 118.986875 -12.48382813 118.22375 -12.3125 117.4375 C-12.9725 116.4475 -13.6325 115.4575 -14.3125 114.4375 C-13.79525862 110.92025862 -13.79525862 110.92025862 -12.3125 109.4375 C-12.67616576 104.70984514 -13.17241982 101.06821771 -16.3125 97.4375 C-22.15340656 93.99222953 -28.8175199 92.22734838 -35.3125 90.4375 C-35.869375 91.345 -36.42625 92.2525 -37 93.1875 C-39.61421545 96.86153253 -42.27097678 99.41673839 -46.3125 101.4375 C-53.88009333 102.38344917 -59.70476622 101.7431093 -66.05859375 97.3984375 C-72.8367766 91.50130095 -76.44684405 83.80307947 -79.3125 75.4375 C-79.9725 77.7475 -80.6325 80.0575 -81.3125 82.4375 C-82.9625 82.1075 -84.6125 81.7775 -86.3125 81.4375 C-86.86764861 76.256113 -86.81349774 73.56096385 -83.5 69.4375 C-82.94957031 68.77363281 -82.39914063 68.10976562 -81.83203125 67.42578125 C-79.48498102 64.35470524 -78.48997945 61.0799227 -77.3125 57.4375 C-76.65144625 55.60213532 -75.98443733 53.76890814 -75.3125 51.9375 C-74.97605469 51.00292969 -74.63960937 50.06835938 -74.29296875 49.10546875 C-73.69357035 47.47443645 -73.07558024 45.84989724 -72.42578125 44.23828125 C-71.06088488 40.84934342 -70.30360712 38.32900688 -70 34.625 C-69.28695167 27.12313737 -64.57510986 20.53667477 -59.3125 15.4375 C-58.631875 14.2 -58.631875 14.2 -57.9375 12.9375 C-53.38952116 5.94060948 -43.96022809 3.5239908 -36.3125 1.4375 C-25.22062575 -0.39418566 -14.6841648 3.9802784 -4.3125 7.4375 C-4.168125 6.468125 -4.02375 5.49875 -3.875 4.5 C-3.15821429 0.5975 -3.15821429 0.5975 0 0 Z M-53.3125 13.4375 C-54.70550182 15.39640881 -56.03495446 17.4014118 -57.3125 19.4375 C-58.1375 20.365625 -58.9625 21.29375 -59.8125 22.25 C-64.96298746 28.36422898 -66.74638562 35.73172284 -68.5234375 43.3671875 C-69.55474492 47.38009655 -70.96155333 51.19782494 -72.4453125 55.0625 C-75.56302126 63.60108977 -75.70112757 73.95262143 -72.37109375 82.4609375 C-70.54543056 85.86974035 -68.24087685 88.900661 -65.3125 91.4375 C-64.6525 91.4375 -63.9925 91.4375 -63.3125 91.4375 C-64.29794563 88.78437715 -65.32609656 86.41540559 -66.8125 84 C-70.31640536 78.01416168 -71.43748557 71.33253728 -71.3125 64.4375 C-70.38671875 62.40625 -70.38671875 62.40625 -69.3125 60.4375 C-68.95268226 58.82231814 -68.64209216 57.19557778 -68.375 55.5625 C-67.61119956 51.43186722 -66.43504679 48.10371718 -64.3125 44.4375 C-59.34743312 44.88886972 -55.9570172 47.20196852 -52.3125 50.4375 C-50.625 52.9375 -50.625 52.9375 -49.3125 55.4375 C-48.6525 56.159375 -47.9925 56.88125 -47.3125 57.625 C-44.92518853 60.98215675 -44.03487615 64.08420336 -42.97265625 68.03125 C-42.32864514 70.56120822 -42.32864514 70.56120822 -41.125 73.375 C-39.88947006 78.03199748 -40.15908659 82.64759245 -40.3125 87.4375 C-37.48869084 84.61369084 -37.5959599 82.24829021 -37.28125 78.359375 C-37.40338241 66.93999483 -42.69317142 57.50059025 -49.04296875 48.41796875 C-50.3125 46.4375 -50.3125 46.4375 -51.3125 43.4375 C-50.425625 44.118125 -49.53875 44.79875 -48.625 45.5 C-45.60018352 47.68654994 -45.60018352 47.68654994 -42.8828125 47.26953125 C-39.9420969 46.31759748 -38.22945929 45.05182924 -35.875 43.0625 C-32.49500075 40.30676018 -29.26088322 38.31768248 -25.3125 36.4375 C-24.87292969 35.97472656 -24.43335938 35.51195313 -23.98046875 35.03515625 C-21.86334349 33.00727749 -19.61703871 31.93894889 -17 30.625 C-12.16208651 28.01355333 -8.60125689 25.88176607 -5.3125 21.4375 C-4.64502853 18.41690878 -4.83959199 16.59022007 -5.3125 13.4375 C-8.37909799 11.39310134 -10.80910003 10.54042221 -14.3125 9.4375 C-14.95058594 9.17582031 -15.58867188 8.91414063 -16.24609375 8.64453125 C-28.67879889 3.78551071 -42.33298285 6.03008603 -53.3125 13.4375 Z M8.6875 15.4375 C8.70321045 16.01193848 8.7189209 16.58637695 8.73510742 17.17822266 C8.79785513 19.80621309 8.83661506 22.43404537 8.875 25.0625 C8.90013672 25.96613281 8.92527344 26.86976562 8.95117188 27.80078125 C9.00971524 33.14774149 8.63667714 36.77764531 5.6875 41.4375 C3.4375 41.75 3.4375 41.75 0.6875 41.4375 C-3.08776061 37.87796857 -4.16105419 34.33114471 -5.3125 29.4375 C-17.79839247 36.49337097 -29.19789088 44.40054578 -40.3125 53.4375 C-39.66359776 57.15516909 -38.63571355 60.53068736 -37.3125 64.0625 C-34.83685518 70.70669381 -34.34947472 75.29968366 -34.765625 82.40625 C-34.63456385 85.56385532 -34.63456385 85.56385532 -32.19921875 87.22265625 C-29.12287265 88.51730258 -26.0936819 89.49166327 -22.875 90.375 C-16.53628855 92.25366787 -12.08315088 93.78152367 -8.3125 99.4375 C-7.48040433 102.41147157 -6.92726843 105.40756988 -6.3125 108.4375 C-1.3625 107.4475 3.5875 106.4575 8.6875 105.4375 C9.77844144 102.51389081 9.77844144 102.51389081 10 99.625 C10.81202875 95.86013943 12.41752388 93.51295152 14.6875 90.4375 C13.9140625 90.43492188 13.140625 90.43234375 12.34375 90.4296875 C4.82180653 90.15040742 0.00660875 88.93148356 -5.3125 83.4375 C-6.49556728 81.07136544 -6.44604608 79.56969264 -6.4375 76.9375 C-6.44007812 76.1434375 -6.44265625 75.349375 -6.4453125 74.53125 C-6.3125 72.4375 -6.3125 72.4375 -5.3125 70.4375 C-2.875 70.8125 -2.875 70.8125 -0.3125 71.4375 C0.0175 72.0975 0.3475 72.7575 0.6875 73.4375 C1.450625 73.72625 2.21375 74.015 3 74.3125 C5.6875 75.4375 5.6875 75.4375 7.3125 77.5 C10.66511753 80.23503009 13.70310211 80.05578383 17.93359375 80.26171875 C20.6875 80.4375 20.6875 80.4375 23.41015625 81.08203125 C24.16167969 81.19933594 24.91320312 81.31664063 25.6875 81.4375 C26.3475 80.7775 27.0075 80.1175 27.6875 79.4375 C29.53515625 79.19921875 29.53515625 79.19921875 31.75 79.125 C42.94424943 78.06826285 53.31694889 68.82873915 60.24609375 60.46875 C64.37217705 54.65421527 65.67667274 48.47540717 64.6875 41.4375 C62.52747253 32.0502108 57.96064003 24.94554134 49.8984375 19.58203125 C36.9180705 12.21715995 23.06108285 14.32419344 8.6875 15.4375 Z M67.9375 32.875 C67.525 33.390625 67.1125 33.90625 66.6875 34.4375 C67.0175 35.4275 67.3475 36.4175 67.6875 37.4375 C69.6675 37.4375 71.6475 37.4375 73.6875 37.4375 C74.3475 39.0875 75.0075 40.7375 75.6875 42.4375 C76.0175 42.4375 76.3475 42.4375 76.6875 42.4375 C77.11494381 37.75864742 77.11494381 37.75864742 75.4375 33.5625 C71.67378004 31.1271161 71.67378004 31.1271161 67.9375 32.875 Z M-62.3125 50.4375 C-62.3125 51.7575 -62.3125 53.0775 -62.3125 54.4375 C-61.6525 54.1075 -60.9925 53.7775 -60.3125 53.4375 C-60.9725 52.4475 -61.6325 51.4575 -62.3125 50.4375 Z M-63.3125 59.4375 C-62.3125 61.4375 -62.3125 61.4375 -62.3125 61.4375 Z M-48.3125 69.4375 C-47.9825 70.7575 -47.6525 72.0775 -47.3125 73.4375 C-46.9825 72.4475 -46.6525 71.4575 -46.3125 70.4375 C-46.9725 70.1075 -47.6325 69.7775 -48.3125 69.4375 Z M-2.3125 76.4375 C-2.6425 77.7575 -2.9725 79.0775 -3.3125 80.4375 C-1.8275 81.4275 -1.8275 81.4275 -0.3125 82.4375 C0.0175 80.7875 0.3475 79.1375 0.6875 77.4375 C-0.3025 77.1075 -1.2925 76.7775 -2.3125 76.4375 Z M-44.3125 80.4375 C-44.3125 82.0875 -44.3125 83.7375 -44.3125 85.4375 C-43.9825 85.4375 -43.6525 85.4375 -43.3125 85.4375 C-43.3125 83.7875 -43.3125 82.1375 -43.3125 80.4375 C-43.6425 80.4375 -43.9725 80.4375 -44.3125 80.4375 Z M2.6875 80.4375 C2.3575 81.7575 2.0275 83.0775 1.6875 84.4375 C4.6575 85.4275 7.6275 86.4175 10.6875 87.4375 C10.12442197 83.35309402 10.12442197 83.35309402 7.25 81.6875 C4.8630978 80.29135879 4.8630978 80.29135879 2.6875 80.4375 Z M15.6875 81.4375 C14.6975 81.9325 14.6975 81.9325 13.6875 82.4375 C13.6875 83.7575 13.6875 85.0775 13.6875 86.4375 C16.3275 86.4375 18.9675 86.4375 21.6875 86.4375 C22.0175 85.7775 22.3475 85.1175 22.6875 84.4375 C20.38381264 83.37097808 18.04731813 82.37328995 15.6875 81.4375 Z M-41.3125 87.4375 C-40.3125 89.4375 -40.3125 89.4375 -40.3125 89.4375 Z M-43.3125 90.4375 C-44.8903125 91.1490625 -44.8903125 91.1490625 -46.5 91.875 C-49.41425851 93.13073741 -52.15996914 93.95984381 -55.3125 94.4375 C-54.9825 95.0975 -54.6525 95.7575 -54.3125 96.4375 C-49.01808305 96.94173019 -46.49836481 95.62673033 -42.3125 92.4375 C-42.6425 91.7775 -42.9725 91.1175 -43.3125 90.4375 Z M-3.3125 113.4375 C-4.3025 113.7675 -5.2925 114.0975 -6.3125 114.4375 C-7.43603157 116.9002812 -8.37177392 119.26322087 -9.25 121.8125 C-9.50942383 122.53985352 -9.76884766 123.26720703 -10.03613281 124.01660156 C-10.55847003 125.48134646 -11.07691215 126.94748665 -11.59130859 128.41503906 C-12.52342239 131.02899665 -13.55085918 133.60345865 -14.5625 136.1875 C-16.29877505 140.95685304 -17.1946841 145.69526264 -17.91796875 150.7109375 C-18.3125 153.4375 -18.3125 153.4375 -18.953125 156.11328125 C-19.45622559 159.36702965 -18.17183771 160.83442721 -16.3125 163.4375 C-15.14126278 161.3427331 -15.14126278 161.3427331 -14.8125 158.375 C-14.3125 155.4375 -14.3125 155.4375 -13.3125 154.4375 C-13.23924832 151.57482433 -13.22011795 148.736781 -13.25 145.875 C-13.25451172 145.06869141 -13.25902344 144.26238281 -13.26367188 143.43164062 C-13.27549482 141.43356244 -13.29343086 139.43552217 -13.3125 137.4375 C-12.3225 137.4375 -11.3325 137.4375 -10.3125 137.4375 C-10.22162109 138.2728125 -10.22162109 138.2728125 -10.12890625 139.125 C-9.56779435 144.23543457 -8.96159148 149.33749553 -8.3125 154.4375 C-9.3025 155.0975 -10.2925 155.7575 -11.3125 156.4375 C-11.04593428 159.37193402 -11.04593428 159.37193402 -10.3125 162.4375 C-9.3225 163.0975 -8.3325 163.7575 -7.3125 164.4375 C-6.6525 162.1275 -5.9925 159.8175 -5.3125 157.4375 C-4.3125 160.4375 -4.3125 160.4375 -4.3125 164.4375 C-5.3025 164.9325 -5.3025 164.9325 -6.3125 165.4375 C-3.6725 165.7675 -1.0325 166.0975 1.6875 166.4375 C1.6875 163.7975 1.6875 161.1575 1.6875 158.4375 C2.3475 158.4375 3.0075 158.4375 3.6875 158.4375 C4.0175 160.0875 4.3475 161.7375 4.6875 163.4375 C6.82625077 162.41989527 6.82625077 162.41989527 8.6875 160.4375 C9.10235066 156.77298581 8.9273427 154.11990958 7.703125 150.63671875 C6.61259863 147.20156069 6.28236679 144.15365758 6.0625 140.5625 C5.98773438 139.41007812 5.91296875 138.25765625 5.8359375 137.0703125 C5.78695312 136.20148438 5.73796875 135.33265625 5.6875 134.4375 C6.3475 134.4375 7.0075 134.4375 7.6875 134.4375 C7.78546875 135.04335937 7.8834375 135.64921875 7.984375 136.2734375 C8.82811418 141.00128635 9.90478045 145.17211456 11.875 149.5625 C13.9246681 154.47862123 14.14789814 157.28315363 12.6875 162.4375 C10.50176631 166.08038948 7.81235081 169.14111832 3.6875 170.4375 C1.02030624 170.87432364 -1.61970509 171.16822051 -4.3125 171.4375 C-4.291875 172.44296875 -4.27125 173.4484375 -4.25 174.484375 C-4.34827673 180.70037786 -5.09352683 186.6024224 -7.3125 192.4375 C-9.21446156 194.06579803 -10.54554328 194.43154146 -12.98046875 194.9375 C-15.82262859 195.5468743 -18.10088284 196.68236 -20.6875 198 C-21.52023438 198.41378906 -22.35296875 198.82757813 -23.2109375 199.25390625 C-25.43899229 200.38457885 -25.43899229 200.38457885 -27.3125 202.4375 C-27.3125 203.4275 -27.3125 204.4175 -27.3125 205.4375 C-12.94819283 210.50725547 12.19639249 215.98437536 26.6875 209.4375 C26.336875 208.839375 25.98625 208.24125 25.625 207.625 C24.6875 205.4375 24.6875 205.4375 25.6875 202.4375 C26.3475 202.4375 27.0075 202.4375 27.6875 202.4375 C27.831875 203.406875 27.97625 204.37625 28.125 205.375 C28.36312341 208.30236773 28.36312341 208.30236773 29.6875 209.4375 C31.20678038 209.50929964 32.72917482 209.52142007 34.25 209.5 C35.07628906 209.49097656 35.90257812 209.48195313 36.75390625 209.47265625 C37.39199219 209.46105469 38.03007812 209.44945312 38.6875 209.4375 C38.31340749 204.27751623 38.31340749 204.27751623 35.625 200 C34.985625 199.484375 34.34625 198.96875 33.6875 198.4375 C36.99966727 199.42219838 38.42252323 200.05896175 40.4375 202.9375 C41.1875 204.4375 41.9375 205.9375 42.6875 207.4375 C45.19715614 206.73410434 45.19715614 206.73410434 47.6875 205.4375 C48.38285873 203.40721804 48.38285873 203.40721804 48.6875 201.4375 C47.72585312 200.48203734 46.74169728 199.54923488 45.75 198.625 C45.20472656 198.10292969 44.65945312 197.58085937 44.09765625 197.04296875 C37.59460002 192.71111119 29.71810808 191.76947086 22.125 190.75 C20.75504883 190.55567383 20.75504883 190.55567383 19.35742188 190.35742188 C17.1350496 190.04326454 14.91191823 189.73676203 12.6875 189.4375 C12.46445559 187.68931409 12.2596355 185.93879677 12.0625 184.1875 C11.94648438 183.21296875 11.83046875 182.2384375 11.7109375 181.234375 C11.68637463 178.30320607 12.1562283 176.89221036 13.6875 174.4375 C14.97196919 177.00643838 15.01727144 179.20326337 15.25 182.0625 C15.33378906 183.06539063 15.41757813 184.06828125 15.50390625 185.1015625 C15.56449219 185.87242187 15.62507813 186.64328125 15.6875 187.4375 C16.47922607 187.54296143 17.27095215 187.64842285 18.08666992 187.75708008 C21.68447157 188.2430272 25.27963989 188.7463199 28.875 189.25 C30.12087891 189.41564453 31.36675781 189.58128906 32.65039062 189.75195312 C33.85244141 189.92275391 35.05449219 190.09355469 36.29296875 190.26953125 C37.39793701 190.42139893 38.50290527 190.5732666 39.64135742 190.72973633 C42.83404864 191.47155021 44.94875049 192.681275 47.6875 194.4375 C48.3475 194.4375 49.0075 194.4375 49.6875 194.4375 C49.97625 195.365625 50.265 196.29375 50.5625 197.25 C51.575 200.53541667 51.575 200.53541667 53.6875 203.4375 C55.3375 203.1075 56.9875 202.7775 58.6875 202.4375 C59.71577577 199.69539019 59.71577577 199.69539019 59.6875 196.4375 C53.5124579 189.02744948 43.1737929 187.51326867 34.0625 186.4375 C32.89460938 186.334375 31.72671875 186.23125 30.5234375 186.125 C27.6875 185.4375 27.6875 185.4375 26.31640625 183.8359375 C24.8299062 178.16692488 24.0393329 169.73996121 26.73828125 164.33203125 C27.98175936 162.96383852 29.33268608 161.6955415 30.6875 160.4375 C33.99616341 152.60775199 34.13268961 142.34190941 31.25 134.3125 C27.19604822 125.65441727 21.06080164 117.52353715 14.6875 110.4375 C8.15107865 108.08438832 2.76619 110.94020379 -3.3125 113.4375 Z M-27.3125 159.4375 C-32.9225 161.4175 -38.5325 163.3975 -44.3125 165.4375 C-44.3125 166.7575 -44.3125 168.0775 -44.3125 169.4375 C-37.45770141 169.1882346 -32.40405972 167.17547918 -27.3125 162.4375 C-27.3125 161.4475 -27.3125 160.4575 -27.3125 159.4375 Z " fill="#1C1819" transform="translate(131.3125,21.5625)"/>
<path d="M0 0 C0.33 -0.99 0.66 -1.98 1 -3 C1 -2.01 1 -1.02 1 0 C1.66 0 2.32 0 3 0 C2.37240135 2.92879371 1.41377341 5.36095629 0 8 C-0.53625 7.54625 -1.0725 7.0925 -1.625 6.625 C-4.37468283 4.74363806 -6.80750601 3.96377177 -10 3 C-10.63679688 2.73960938 -11.27359375 2.47921875 -11.9296875 2.2109375 C-22.89481274 -2.08674895 -33.36194985 -0.45011563 -44 4 C-47.41935669 5.51183992 -48.59114751 6.47786876 -50 10 C-51.65 10 -53.3 10 -55 10 C-54.17374638 6.05234381 -53.22825993 4.21269676 -50.25 1.4375 C-32.92247479 -9.65787997 -18.03039874 -6.01013291 0 0 Z " fill="#151111" transform="translate(127,29)"/>
<path d="M0 0 C0 1.98 0 3.96 0 6 C-1.98 6.66 -3.96 7.32 -6 8 C-6.061875 9.155 -6.12375 10.31 -6.1875 11.5 C-6.79567924 16.38281044 -8.7722312 20.293721 -12 24 C-13.31196021 24.70780127 -14.64539704 25.37768735 -16 26 C-17.37086915 27.29470975 -18.71340837 28.62150897 -20 30 C-20.66 29.67 -21.32 29.34 -22 29 C-20.83733281 26.25187754 -19.57104873 24.51605498 -17.5625 22.25 C-14.59520864 18.82620228 -13.40195514 15.27965252 -12 11 C-11.67 11 -11.34 11 -11 11 C-10.67 7.04 -10.34 3.08 -10 -1 C-5.07577115 -1.98484577 -4.18645898 -2.03342293 0 0 Z " fill="#171415" transform="translate(207,61)"/>
<path d="M0 0 C0.99 0 1.98 0 3 0 C3.53364887 2.05922133 4.05142189 4.12256107 4.5625 6.1875 C4.85253906 7.33605469 5.14257812 8.48460937 5.44140625 9.66796875 C5.9838531 12.90368317 6.03447175 14.90789047 5 18 C4.34 18.33 3.68 18.66 3 19 C3.27540704 22.81813447 3.27540704 22.81813447 5 26 C5.99 23.69 6.98 21.38 8 19 C8.66 19.33 9.32 19.66 10 20 C9.67 22.31 9.34 24.62 9 27 C10.98 27.66 12.96 28.32 15 29 C14.67 29.66 14.34 30.32 14 31 C12.58297487 30.85769192 11.1663904 30.71099254 9.75 30.5625 C8.56664063 30.44068359 8.56664063 30.44068359 7.359375 30.31640625 C3.51404373 29.80072441 1.56953355 29.53874795 -1.3125 26.8125 C-3 24 -3 24 -2.8125 20.75 C-2 18 -2 18 -1 17 C-0.76298761 14.14122091 -0.57780818 11.30116703 -0.4375 8.4375 C-0.39431641 7.63119141 -0.35113281 6.82488281 -0.30664062 5.99414062 C-0.20024738 3.99631195 -0.09959112 1.9981793 0 0 Z " fill="#131011" transform="translate(118,159)"/>
<path d="M0 0 C0.66 0.33 1.32 0.66 2 1 C-0.6527376 4.26564448 -3.80364271 5.26470079 -7.6875 6.6875 C-8.86699219 7.12449219 -10.04648438 7.56148437 -11.26171875 8.01171875 C-12.16535156 8.33785156 -13.06898437 8.66398438 -14 9 C-14 9.66 -14 10.32 -14 11 C-8.88634986 9.9318153 -3.92772031 8.76892524 1 7 C1 7.66 1 8.32 1 9 C4.465 8.505 4.465 8.505 8 8 C7.67 8.66 7.34 9.32 7 10 C4.92578125 10.52734375 4.92578125 10.52734375 2.3125 10.9375 C-0.95888861 11.51671186 -3.09250259 12.04908301 -6.0625 13.625 C-10.02911647 15.48171409 -13.68099721 15.60466039 -18 15 C-20.2734375 13.98046875 -20.2734375 13.98046875 -22 13 C-21.984375 10.69921875 -21.984375 10.69921875 -21 8 C-18.35448842 6.66214426 -16.04039775 5.70906266 -13.25 4.8125 C-11.81765497 4.31916533 -10.38536211 3.82567915 -8.953125 3.33203125 C-8.27185547 3.10725098 -7.59058594 2.8824707 -6.88867188 2.65087891 C-5.26910629 2.09274009 -3.68401875 1.43626208 -2.109375 0.76171875 C-1.41328125 0.51035156 -0.7171875 0.25898438 0 0 Z " fill="#131112" transform="translate(102,179)"/>
<path d="M0 0 C-2.85276137 2.93200474 -5.65079784 5.64315404 -9 8 C-8.42547254 11.93075644 -8.42547254 11.93075644 -6 15 C-5.5359375 16.2065625 -5.5359375 16.2065625 -5.0625 17.4375 C-4.0121686 19.97065221 -3.04778552 21.23145796 -1 23 C-1.33 23.66 -1.66 24.32 -2 25 C-2.99 24.34 -3.98 23.68 -5 23 C-5.99 23 -6.98 23 -8 23 C-10.02323613 22.04788888 -12.02699884 21.05226728 -14 20 C-10.25 18.875 -10.25 18.875 -8 20 C-8.35049575 16.75791433 -8.56221181 15.38472296 -11.0625 13.1875 C-12.0215625 12.5996875 -12.0215625 12.5996875 -13 12 C-13 13.65 -13 15.3 -13 17 C-15.8125 18.5625 -15.8125 18.5625 -19 20 C-19.99 19.67 -20.98 19.34 -22 19 C-22.99 19.66 -23.98 20.32 -25 21 C-25.99 20.67 -26.98 20.34 -28 20 C-28 19.34 -28 18.68 -28 18 C-23.71 17.01 -19.42 16.02 -15 15 C-15 13.02 -15 11.04 -15 9 C-11.06933389 1.84057244 -8.20901705 -0.47359714 0 0 Z " fill="#100C0D" transform="translate(155,111)"/>
<path d="M0 0 C0.68774405 1.32258472 1.34711373 2.65986503 2 4 C2.8353125 5.485 2.8353125 5.485 3.6875 7 C5.87465454 12.15543571 5.15321484 17.64362056 4 23 C1.9375 26.25 1.9375 26.25 0 28 C-0.99 27.67 -1.98 27.34 -3 27 C-2.01 26.34 -1.02 25.68 0 25 C0.58189266 22.57478506 0.58189266 22.57478506 0.6875 19.875 C0.75324219 18.96492188 0.81898437 18.05484375 0.88671875 17.1171875 C0.92410156 16.41851562 0.96148437 15.71984375 1 15 C-0.65 15 -2.3 15 -4 15 C-5 12 -5 12 -4 9 C-5.32 8.34 -6.64 7.68 -8 7 C-8.66 7.66 -9.32 8.32 -10 9 C-10.33 7.68 -10.66 6.36 -11 5 C-8.03 5.495 -8.03 5.495 -5 6 C-5 5.01 -5 4.02 -5 3 C-4.34 3.33 -3.68 3.66 -3 4 C-3 4.33 -3 4.66 -3 5 C-2.01 5 -1.02 5 0 5 C0 3.35 0 1.7 0 0 Z " fill="#1E1B1B" transform="translate(87,86)"/>
<path d="M0 0 C-1.2065625 0.8971875 -1.2065625 0.8971875 -2.4375 1.8125 C-5.22327984 3.80947276 -5.22327984 3.80947276 -6 7 C9.30205495 9.61667996 24.52294721 11.76313774 40 13 C40 13.33 40 13.66 40 14 C32.49045467 14.14123553 25.10424294 13.71427581 17.625 13.0625 C16.02591797 12.93198242 16.02591797 12.93198242 14.39453125 12.79882812 C5.83662887 12.07221377 5.83662887 12.07221377 2 11 C2 11.66 2 12.32 2 13 C5.63 13 9.26 13 13 13 C13.33 13.66 13.66 14.32 14 15 C7.52592783 15.24430461 1.27457246 14.71124704 -5 13 C-5.66 12.34 -6.32 11.68 -7 11 C-6.01 10.67 -5.02 10.34 -4 10 C-5.32 9.34 -6.64 8.68 -8 8 C-6.53333333 1.4 -6.53333333 1.4 -4 -0.5 C-2 -1 -2 -1 0 0 Z " fill="#110C0D" transform="translate(110,220)"/>
<path d="M0 0 C0.66 0.33 1.32 0.66 2 1 C1.01 1.66 0.02 2.32 -1 3 C-0.46632813 2.855625 0.06734375 2.71125 0.6171875 2.5625 C6.35301422 1.13350511 12.08789622 0.24003203 18 1 C18.66 1.66 19.32 2.32 20 3 C18.80117187 3.03867187 18.80117187 3.03867187 17.578125 3.078125 C8.23991921 3.56037976 -0.79742008 5.26277969 -9 10 C-10.26804566 12.0335948 -10.26804566 12.0335948 -11 14 C-12.65 14 -14.3 14 -16 14 C-15.15891056 9.98146158 -14.08056637 7.71592101 -10.8125 5.3125 C-7.34626548 3.07177518 -3.89264832 1.37387588 0 0 Z " fill="#131112" transform="translate(88,25)"/>
<path d="M0 0 C1.65 0.33 3.3 0.66 5 1 C5 5 5 5 3 8 C2.83300768 11.12521833 2.83300768 11.12521833 3 14 C5.97 14.495 5.97 14.495 9 15 C9 15.99 9 16.98 9 18 C10.65 18.33 12.3 18.66 14 19 C10.82132212 20.05955929 9.29749893 20.5246021 6 20 C2.82874617 17.81640361 -0.25969271 15.48061458 -2 12 C-2.16796875 9.94140625 -2.16796875 9.94140625 -2.1875 7.5625 C-2.20167969 6.78003906 -2.21585937 5.99757813 -2.23046875 5.19140625 C-2 3 -2 3 0 0 Z " fill="#181213" transform="translate(126,91)"/>
<path d="M0 0 C0.2475 0.598125 0.495 1.19625 0.75 1.8125 C1.86434075 4.135974 1.86434075 4.135974 4.125 5.4375 C6 7 6 7 6.25 9.6875 C6.1675 10.450625 6.085 11.21375 6 12 C4.948125 11.79375 3.89625 11.5875 2.8125 11.375 C-1.21895317 10.97846362 -2.39352011 11.51212489 -6 13 C-8.81931566 13.49752629 -11.63739936 13.87659663 -14.4765625 14.2421875 C-17.53701848 15.1612718 -18.37822467 16.31155364 -20 19 C-21.0625 16.625 -21.0625 16.625 -22 14 C-21.67 13.34 -21.34 12.68 -21 12 C-19.35 12 -17.7 12 -16 12 C-15.67 11.01 -15.34 10.02 -15 9 C-15 9.66 -15 10.32 -15 11 C-14.278125 10.855625 -13.55625 10.71125 -12.8125 10.5625 C-9.27083333 9.85416667 -5.72916667 9.14583333 -2.1875 8.4375 C-1.465625 8.293125 -0.74375 8.14875 0 8 C-0.185625 7.05125 -0.37125 6.1025 -0.5625 5.125 C-1 2 -1 2 0 0 Z " fill="#1E1B1C" transform="translate(142,120)"/>
<path d="M0 0 C-2.88406243 3.40843742 -4.3708265 4.86591384 -8.8125 5.8125 C-10.3903125 5.9053125 -10.3903125 5.9053125 -12 6 C-12.33 8.31 -12.66 10.62 -13 13 C-10.525 13.99 -10.525 13.99 -8 15 C-8 15.33 -8 15.66 -8 16 C-13.28301887 17.32075472 -13.28301887 17.32075472 -16.375 15.9375 C-18 14 -18 14 -18.5 11.125 C-17.86700433 7.16877707 -16.90532198 5.76005588 -14 3 C-9.22975517 -0.20722844 -5.74576058 -1.72372817 0 0 Z " fill="#181415" transform="translate(116,215)"/>
<path d="M0 0 C0.66 0 1.32 0 2 0 C-1.41179891 8.34407341 -12.27028829 14.07568482 -20 18 C-20.66 18 -21.32 18 -22 18 C-22.33 17.01 -22.66 16.02 -23 15 C-12.85504435 6.81042129 -12.85504435 6.81042129 -7 4 C-6.01 4.33 -5.02 4.66 -4 5 C-3.38125 4.175 -2.7625 3.35 -2.125 2.5 C-1.42375 1.675 -0.7225 0.85 0 0 Z " fill="#141212" transform="translate(192,85)"/>
<path d="M0 0 C0.66 0 1.32 0 2 0 C3.35991738 6.32427599 4.37679879 12.56025419 5 19 C5.15873088 10.45175534 5.15873088 10.45175534 4 2 C4.66 2.33 5.32 2.66 6 3 C8.47987907 10.4396372 7.7795968 19.7035584 5 27 C3.68 27.33 2.36 27.66 1 28 C1.00523682 27.36497559 1.01047363 26.72995117 1.01586914 26.07568359 C1.03676256 23.17546595 1.04969934 20.2752642 1.0625 17.375 C1.07087891 16.37597656 1.07925781 15.37695312 1.08789062 14.34765625 C1.1041087 9.44979725 1.04318537 4.81343801 0 0 Z " fill="#140F10" transform="translate(162,155)"/>
<path d="M0 0 C0.66 0 1.32 0 2 0 C4.13097096 6.29981221 6.24980222 12.58260813 8 19 C7.01 18.67 6.02 18.34 5 18 C4.67 21.3 4.34 24.6 4 28 C3.67 28 3.34 28 3 28 C2.92652344 27.12988281 2.92652344 27.12988281 2.8515625 26.2421875 C2.77679688 25.46101563 2.70203125 24.67984375 2.625 23.875 C2.55539063 23.10929687 2.48578125 22.34359375 2.4140625 21.5546875 C2.06418822 18.90350649 2.06418822 18.90350649 0.96875 16.125 C-0.11578412 12.62650282 -0.19953589 9.77725861 -0.125 6.125 C-0.10695312 4.97257813 -0.08890625 3.82015625 -0.0703125 2.6328125 C-0.04710937 1.76398438 -0.02390625 0.89515625 0 0 Z " fill="#151113" transform="translate(137,156)"/>
<path d="M0 0 C0.9075 0.66 1.815 1.32 2.75 2 C2.75 2.33 2.75 2.66 2.75 3 C0.77 3.33 -1.21 3.66 -3.25 4 C-3.25 3.34 -3.25 2.68 -3.25 2 C-10.87314474 1.76423264 -17.83569409 2.16282685 -25.25 4 C-18.87211838 -2.90937176 -8.58873916 -4.9705791 0 0 Z " fill="#201A1B" transform="translate(111.25,25)"/>
<path d="M0 0 C0.99 0 1.98 0 3 0 C3.53364887 2.05922133 4.05142189 4.12256107 4.5625 6.1875 C4.85253906 7.33605469 5.14257812 8.48460937 5.44140625 9.66796875 C5.98068761 12.88480093 5.88247476 14.89672783 5 18 C4.01 18.33 3.02 18.66 2 19 C-0.52775351 15.20836973 -0.22443035 12.19125969 -0.125 7.8125 C-0.11597656 7.06291016 -0.10695313 6.31332031 -0.09765625 5.54101562 C-0.07412578 3.69387346 -0.03825561 1.84689588 0 0 Z " fill="#161415" transform="translate(118,159)"/>
<path d="M0 0 C2.4375 0.375 2.4375 0.375 5 1 C5.33 1.66 5.66 2.32 6 3 C5.01 3 4.02 3 3 3 C3.350625 3.721875 3.70125 4.44375 4.0625 5.1875 C5.10409017 8.3122705 4.89096572 9.88161996 4 13 C3.34 13 2.68 13 2 13 C2.33 12.01 2.66 11.02 3 10 C2.67 9.34 2.34 8.68 2 8 C1.67 8.99 1.34 9.98 1 11 C-1.0625 11.6875 -1.0625 11.6875 -3 12 C-3.33 13.65 -3.66 15.3 -4 17 C-4.33 17 -4.66 17 -5 17 C-5.7342166 10.24520726 -3.27591952 5.81475715 0 0 Z " fill="#181516" transform="translate(67,65)"/>
<path d="M0 0 C0 1.98 0 3.96 0 6 C-2.97 6.66 -5.94 7.32 -9 8 C-9.33 5.03 -9.66 2.06 -10 -1 C-5.94568308 -2.15837626 -3.78187881 -1.83691257 0 0 Z " fill="#231E20" transform="translate(207,61)"/>
<path d="M0 0 C0.99 0 1.98 0 3 0 C4.97231613 1.97231613 5.76893465 3.38769223 6.9375 5.875 C8.37808886 8.84250514 9.87663142 11.45195771 12 14 C10.68 13.67 9.36 13.34 8 13 C8 13.66 8 14.32 8 15 C8.66 15.33 9.32 15.66 10 16 C9.01 16 8.02 16 7 16 C3.31034592 11.58774304 0 5.80717836 0 0 Z " fill="#1C171B" transform="translate(54,99)"/>
<path d="M0 0 C0.99 0 1.98 0 3 0 C3.16798051 2.27073652 3.33434113 4.54159293 3.5 6.8125 C3.5928125 8.07707031 3.685625 9.34164062 3.78125 10.64453125 C3.91914781 12.75978517 4 14.88025592 4 17 C3.34 17.33 2.68 17.66 2 18 C2 17.34 2 16.68 2 16 C1.34 16 0.68 16 0 16 C0 14.35 0 12.7 0 11 C-0.66 11 -1.32 11 -2 11 C-2.33 10.01 -2.66 9.02 -3 8 C-2.34 7.01 -1.68 6.02 -1 5 C-0.61500109 3.34450469 -0.27206865 1.6777567 0 0 Z " fill="#262324" transform="translate(53,83)"/>
<path d="M0 0 C0 0.99 0 1.98 0 3 C-0.680625 3.268125 -1.36125 3.53625 -2.0625 3.8125 C-4.29261929 4.71403758 -6.48795777 5.65407236 -8.6875 6.625 C-12 8 -12 8 -14 8 C-13.67 6.68 -13.34 5.36 -13 4 C-12.34 4 -11.68 4 -11 4 C-11 2.68 -11 1.36 -11 0 C-9.54263913 -0.19491452 -8.08405407 -0.38069358 -6.625 -0.5625 C-5.81289062 -0.66691406 -5.00078125 -0.77132812 -4.1640625 -0.87890625 C-2 -1 -2 -1 0 0 Z " fill="#201D1E" transform="translate(170,100)"/>
<path d="M0 0 C2 1 2 1 3 2 C3.33 2.99 3.66 3.98 4 5 C3.00390625 6.83203125 3.00390625 6.83203125 1.5625 8.8125 C-0.81019286 12.35843049 -1.54368917 14.65048664 -1 19 C-1.66 19 -2.32 19 -3 19 C-3.33 19.66 -3.66 20.32 -4 21 C-4 17 -4 13 -4 9 C-3 8 -2 7 -1 6 C-1 5.01 -1 4.02 -1 3 C-0.67 2.01 -0.34 1.02 0 0 Z " fill="#282122" transform="translate(162,179)"/>
<path d="M0 0 C0.66 0 1.32 0 2 0 C2.33 0.66 2.66 1.32 3 2 C3.66 2.309375 4.32 2.61875 5 2.9375 C7 4 7 4 8 7 C9.98 7 11.96 7 14 7 C14.33 8.32 14.66 9.64 15 11 C14.1646875 10.505 14.1646875 10.505 13.3125 10 C10.65502839 8.66924071 10.65502839 8.66924071 6 9 C6 13.29 6 17.58 6 22 C5.67 22 5.34 22 5 22 C4.89042969 21.0821875 4.78085938 20.164375 4.66796875 19.21875 C3.78590186 12.39169571 2.77669175 6.31066306 0 0 Z " fill="#120E0F" transform="translate(191,51)"/>
<path d="M0 0 C2.475 0.99 2.475 0.99 5 2 C2.54019293 7.78054662 2.54019293 7.78054662 0 8.8125 C-0.66 8.874375 -1.32 8.93625 -2 9 C-2.99 9.33 -3.98 9.66 -5 10 C-5.66 9.67 -6.32 9.34 -7 9 C-6.82374165 6.62051228 -6.30280227 5.29774151 -4.59765625 3.62109375 C-3.09350908 2.37884514 -1.54870149 1.18623944 0 0 Z " fill="#252021" transform="translate(98,61)"/>
<path d="M0 0 C0.99 0 1.98 0 3 0 C2.84402344 0.91523437 2.68804687 1.83046875 2.52734375 2.7734375 C2.33269531 3.96195312 2.13804688 5.15046875 1.9375 6.375 C1.74027344 7.55835937 1.54304688 8.74171875 1.33984375 9.9609375 C0.73065313 12.91450901 0.73065313 12.91450901 2 15 C0.1875 16.5625 0.1875 16.5625 -2 18 C-2.99 17.67 -3.98 17.34 -5 17 C-4.505 15.824375 -4.01 14.64875 -3.5 13.4375 C-1.97000653 9.40779889 -1.73258645 6.27861686 -2 2 C-1.34 2 -0.68 2 0 2 C0 1.34 0 0.68 0 0 Z " fill="#211E1E" transform="translate(95,94)"/>
<path d="M0 0 C0.99 0.33 1.98 0.66 3 1 C2.34 1 1.68 1 1 1 C1 1.99 1 2.98 1 4 C1.66 4.66 2.32 5.32 3 6 C-1.455 8.97 -1.455 8.97 -6 12 C-6.66 11.67 -7.32 11.34 -8 11 C-7.34 10.01 -6.68 9.02 -6 8 C-6.99 8 -7.98 8 -9 8 C-8 5 -8 5 -5.0625 3.4375 C-4.051875 2.963125 -3.04125 2.48875 -2 2 C-1.34 1.34 -0.68 0.68 0 0 Z " fill="#161213" transform="translate(108,55)"/>
<path d="M0 0 C0.9075 0.165 1.815 0.33 2.75 0.5 C6.11087503 1.10137146 6.11087503 1.10137146 10 1 C12 1 14 1 16 1 C16.33 2.32 16.66 3.64 17 5 C15.63875 4.938125 15.63875 4.938125 14.25 4.875 C11.1217954 4.99531556 9.61385994 5.3914708 7 7 C5 5.625 5 5.625 3 4 C3 3.34 3 2.68 3 2 C2.01 2 1.02 2 0 2 C0 1.34 0 0.68 0 0 Z " fill="#1F1112" transform="translate(190,49)"/>
<path d="M0 0 C0.66 0 1.32 0 2 0 C1.67 1.98 1.34 3.96 1 6 C1.99 6 2.98 6 4 6 C4.33 4.02 4.66 2.04 5 0 C6.65063328 4.58509245 5.4735441 9.01111477 4.375 13.625 C3.94639467 16.33950045 4.31995506 18.35538079 5 21 C4.01 20.67 3.02 20.34 2 20 C1.77825067 18.54364629 1.57301302 17.08477044 1.375 15.625 C1.25898437 14.81289062 1.14296875 14.00078125 1.0234375 13.1640625 C1.01570313 12.44992188 1.00796875 11.73578125 1 11 C1.66 10.34 2.32 9.68 3 9 C3 8.34 3 7.68 3 7 C1.68 7.99 0.36 8.98 -1 10 C-0.67 6.7 -0.34 3.4 0 0 Z " fill="#141111" transform="translate(109,164)"/>
<path d="M0 0 C0.38218767 1.65614657 0.71395102 3.32457024 1 5 C0.67 5.33 0.34 5.66 0 6 C0.144375 7.010625 0.28875 8.02125 0.4375 9.0625 C1.02806994 13.19648959 1.21183236 16.83396356 1 21 C0.34 21.66 -0.32 22.32 -1 23 C-1.06058594 22.07058594 -1.12117187 21.14117187 -1.18359375 20.18359375 C-1.79571552 11.05853115 -1.79571552 11.05853115 -3 2 C-3.99 1.67 -4.98 1.34 -6 1 C-4 0 -4 0 0 0 Z " fill="#1E1B1C" transform="translate(167,153)"/>
<path d="M0 0 C-0.61488281 0.68835937 -0.61488281 0.68835937 -1.2421875 1.390625 C-1.78101562 2.00421875 -2.31984375 2.6178125 -2.875 3.25 C-3.40867187 3.85328125 -3.94234375 4.4565625 -4.4921875 5.078125 C-5.9797487 6.97418746 -7.00322436 8.81290005 -8 11 C-8.66 11 -9.32 11 -10 11 C-10 10.34 -10 9.68 -10 9 C-10.66 8.67 -11.32 8.34 -12 8 C-11.23997083 6.68121422 -10.46656347 5.3701316 -9.6875 4.0625 C-9.25824219 3.33160156 -8.82898438 2.60070313 -8.38671875 1.84765625 C-5.92039514 -1.43845943 -3.58574624 -1.1128178 0 0 Z " fill="#1C1A1B" transform="translate(76,40)"/>
<path d="M0 0 C2.61106596 0.35284675 4.55190182 0.69593338 6.75 2.1875 C8.47091655 4.68282899 8.66943712 7.02493408 9 10 C8.34 10 7.68 10 7 10 C6.67 10.66 6.34 11.32 6 12 C2.7 12 -0.6 12 -4 12 C-4 11.67 -4 11.34 -4 11 C-1.03 11 1.94 11 5 11 C3.90213575 5.59212615 3.90213575 5.59212615 0 2 C0 1.34 0 0.68 0 0 Z " fill="#0D0C0D" transform="translate(165,220)"/>
<path d="M0 0 C0.33 0.66 0.66 1.32 1 2 C2.1446875 1.7525 2.1446875 1.7525 3.3125 1.5 C6 1 6 1 9 1 C9.33 1.66 9.66 2.32 10 3 C9.24074219 3.17015625 8.48148438 3.3403125 7.69921875 3.515625 C6.20841797 3.87914062 6.20841797 3.87914062 4.6875 4.25 C3.70136719 4.48203125 2.71523437 4.7140625 1.69921875 4.953125 C-1.34419645 6.13349443 -2.33415362 7.24822646 -4 10 C-5.0625 7.625 -5.0625 7.625 -6 5 C-5.67 4.34 -5.34 3.68 -5 3 C-3.35 3 -1.7 3 0 3 C0 2.01 0 1.02 0 0 Z " fill="#201D1E" transform="translate(126,129)"/>
<path d="M0 0 C0.763125 0.20625 1.52625 0.4125 2.3125 0.625 C2.6425 2.275 2.9725 3.925 3.3125 5.625 C2.3225 5.955 1.3325 6.285 0.3125 6.625 C-0.3475 6.295 -1.0075 5.965 -1.6875 5.625 C-2.0175 6.285 -2.3475 6.945 -2.6875 7.625 C-3.3475 7.625 -4.0075 7.625 -4.6875 7.625 C-5.0175 5.645 -5.3475 3.665 -5.6875 1.625 C-2.6875 -0.375 -2.6875 -0.375 0 0 Z " fill="#1E1B1C" transform="translate(83.6875,79.375)"/>
<path d="M0 0 C2.625 -0.1875 2.625 -0.1875 5 0 C5 0.66 5 1.32 5 2 C4.01 2.495 4.01 2.495 3 3 C3.99 3.99 4.98 4.98 6 6 C5.67 6.66 5.34 7.32 5 8 C4.34 7.67 3.68 7.34 3 7 C2.67 8.32 2.34 9.64 2 11 C0.68 10.67 -0.64 10.34 -2 10 C-1 8 0 6 1 4 C0.01 3.67 -0.98 3.34 -2 3 C-1.34 2.01 -0.68 1.02 0 0 Z " fill="#120C0C" transform="translate(131,95)"/>
<path d="M0 0 C4 0 4 0 5.6875 1.0625 C7.69965291 4.03282096 7.93766767 6.44705702 8 10 C6.0625 12.4375 6.0625 12.4375 4 14 C4.66 12.35 5.32 10.7 6 9 C5.34 9 4.68 9 4 9 C3.566875 7.88625 3.566875 7.88625 3.125 6.75 C2.17697356 4.43260203 1.15154089 2.22082885 0 0 Z " fill="#0D0B0C" transform="translate(187,213)"/>
<path d="M0 0 C0.66 0.66 1.32 1.32 2 2 C1.67 2.33 1.34 2.66 1 3 C1.33 3.66 1.66 4.32 2 5 C2.99 5.33 3.98 5.66 5 6 C4.25 7.9375 4.25 7.9375 3 10 C0.875 10.75 0.875 10.75 -1 11 C-2.1875 8.875 -2.1875 8.875 -3 6 C-1.625 2.6875 -1.625 2.6875 0 0 Z " fill="#191317" transform="translate(70,104)"/>
<path d="M0 0 C0.33 0.99 0.66 1.98 1 3 C3.97 3.495 3.97 3.495 7 4 C6.37104172 6.93513864 5.41105919 9.35426402 4 12 C3.67 12.66 3.34 13.32 3 14 C0.56574762 9.03006806 -0.34615998 5.65394631 0 0 Z " fill="#181617" transform="translate(60,90)"/>
<path d="M0 0 C0.1875 2.375 0.1875 2.375 0 5 C-3.4352048 7.29013653 -4.985331 7.17842973 -9 7 C-7.53913043 1.4 -7.53913043 1.4 -5.0625 -0.4375 C-3 -1 -3 -1 0 0 Z " fill="#282526" transform="translate(116,53)"/>
<path d="M0 0 C0.33 0.99 0.66 1.98 1 3 C1.66 3 2.32 3 3 3 C2.37240135 5.92879371 1.41377341 8.36095629 0 11 C-0.598125 10.54625 -1.19625 10.0925 -1.8125 9.625 C-3.50590652 8.36704087 -5.24477086 7.17015276 -7 6 C-5.68 5.67 -4.36 5.34 -3 5 C-3 4.01 -3 3.02 -3 2 C-2.01 2.33 -1.02 2.66 0 3 C0 2.01 0 1.02 0 0 Z " fill="#140F10" transform="translate(127,26)"/>
<path d="M0 0 C-2.85237979 3.45743005 -4.14528078 4.89859263 -8.6875 5.4375 C-12 5 -12 5 -14 3 C-9.05485878 0.07558908 -5.81671503 -1.74501451 0 0 Z " fill="#251516" transform="translate(116,215)"/>
<path d="M0 0 C2.64 1.32 5.28 2.64 8 4 C7.01 5.485 7.01 5.485 6 7 C5.45730469 6.7834375 4.91460937 6.566875 4.35546875 6.34375 C3.64003906 6.0653125 2.92460937 5.786875 2.1875 5.5 C1.47980469 5.2215625 0.77210938 4.943125 0.04296875 4.65625 C-2.11841216 3.8470838 -2.11841216 3.8470838 -5 4 C-5.33 3.01 -5.66 2.02 -6 1 C-3.03 1.495 -3.03 1.495 0 2 C0 1.34 0 0.68 0 0 Z " fill="#1B1A1B" transform="translate(173,212)"/>
<path d="M0 0 C0.33 0.66 0.66 1.32 1 2 C1.99 2.33 2.98 2.66 4 3 C2 5 2 5 -1.4375 5.125 C-2.613125 5.08375 -3.78875 5.0425 -5 5 C-5.99 5 -6.98 5 -8 5 C-8 4.01 -8 3.02 -8 2 C-5.36 1.34 -2.72 0.68 0 0 Z " fill="#211E1F" transform="translate(153,107)"/>
<path d="M0 0 C5.78461538 4.43076923 5.78461538 4.43076923 6.875 7.3125 C6.936875 8.1478125 6.936875 8.1478125 7 9 C0.85169289 7.79444959 -1.35248219 6.08441876 -5 1 C-4.38125 1.33 -3.7625 1.66 -3.125 2 C-1.08981656 3.14193235 -1.08981656 3.14193235 1 3 C0.67 2.01 0.34 1.02 0 0 Z " fill="#0E0B0C" transform="translate(188,41)"/>
<path d="M0 0 C1.75 2.5625 1.75 2.5625 3 5 C0.8125 5.75 0.8125 5.75 -2 6 C-4.8125 4.1875 -4.8125 4.1875 -7 2 C-7 1.34 -7 0.68 -7 0 C-3.84150454 -1.05283182 -2.969245 -1.29904469 0 0 Z " fill="#251516" transform="translate(119,188)"/>
<path d="M0 0 C1.33333333 0 2.66666667 0 4 0 C4.63019694 9.01531729 4.63019694 9.01531729 2 13.125 C1.34 13.74375 0.68 14.3625 0 15 C-0.99 14.67 -1.98 14.34 -3 14 C-2.01 13.34 -1.02 12.68 0 12 C0.58189266 9.57478506 0.58189266 9.57478506 0.6875 6.875 C0.78611328 5.50988281 0.78611328 5.50988281 0.88671875 4.1171875 C0.92410156 3.41851562 0.96148437 2.71984375 1 2 C0.34 1.67 -0.32 1.34 -1 1 C-0.67 0.67 -0.34 0.34 0 0 Z " fill="#141011" transform="translate(87,99)"/>
<path d="M0 0 C1 3 1 3 0.0625 5.0625 C-0.288125 5.701875 -0.63875 6.34125 -1 7 C-1 7.66 -1 8.32 -1 9 C-0.34 9.33 0.32 9.66 1 10 C0.01 12.97 -0.98 15.94 -2 19 C-2.99 18.67 -3.98 18.34 -5 18 C-4.34 17.67 -3.68 17.34 -3 17 C-2.53476937 15.10466658 -2.53476937 15.10466658 -2.375 12.9375 C-2.25125 11.638125 -2.1275 10.33875 -2 9 C-3.32 9.33 -4.64 9.66 -6 10 C-4.34832443 6.4213696 -2.21713508 3.25179812 0 0 Z " fill="#151112" transform="translate(52,85)"/>
<path d="M0 0 C2.3125 0.1875 2.3125 0.1875 5 1 C7.68448204 4.33246046 8.36325349 6.76204266 8 11 C7.54625 10.34 7.0925 9.68 6.625 9 C6.08875 8.34 5.5525 7.68 5 7 C4.34 7 3.68 7 3 7 C2.67 6.01 2.34 5.02 2 4 C1.01 4 0.02 4 -1 4 C-0.67 2.68 -0.34 1.36 0 0 Z " fill="#100E0F" transform="translate(130,22)"/>
<path d="M0 0 C0.66 0.66 1.32 1.32 2 2 C2.99 2 3.98 2 5 2 C4.67 3.98 4.34 5.96 4 8 C2.35 8.33 0.7 8.66 -1 9 C-1 5.72724974 -0.70074844 3.153368 0 0 Z " fill="#1B181A" transform="translate(121,206)"/>
<path d="M0 0 C0.99 0.495 0.99 0.495 2 1 C2.66 0.67 3.32 0.34 4 0 C4.66 2.97 5.32 5.94 6 9 C5.34 9 4.68 9 4 9 C4 9.66 4 10.32 4 11 C3.34 11 2.68 11 2 11 C0.80712589 7.12315913 0 4.08378077 0 0 Z " fill="#141012" transform="translate(91,85)"/>
<path d="M0 0 C0.53190541 1.43344 1.05015258 2.87195367 1.5625 4.3125 C1.85253906 5.11300781 2.14257812 5.91351563 2.44140625 6.73828125 C3 9 3 9 2 12 C1.443125 10.9275 0.88625 9.855 0.3125 8.75 C-1.6111657 5.35083445 -3.76569838 3.24604279 -7 1 C-4.50935112 0.31292445 -2.62113708 0 0 0 Z " fill="#1F0909" transform="translate(117,114)"/>
<path d="M0 0 C3.1037543 2.06916953 3.53219022 2.58194295 4.75 5.875 C5.14445312 6.89207031 5.14445312 6.89207031 5.546875 7.9296875 C6.06544044 10.29899512 5.75618591 11.72122356 5 14 C4.15675328 12.421924 3.32576082 10.8372958 2.5 9.25 C2.0359375 8.36828125 1.571875 7.4865625 1.09375 6.578125 C0 4 0 4 0 0 Z " fill="#1B1819" transform="translate(117,115)"/>
<path d="M0 0 C2.0625 0.4375 2.0625 0.4375 4 1 C2.28133783 2.0384211 0.54955402 3.05514635 -1.1875 4.0625 C-2.15042969 4.63097656 -3.11335937 5.19945313 -4.10546875 5.78515625 C-7.32916541 7.13815174 -8.72520421 7.04769518 -12 6 C-11.67 5.01 -11.34 4.02 -11 3 C-10.46375 3.226875 -9.9275 3.45375 -9.375 3.6875 C-5.92047072 4.14204333 -3.950703 2.70485062 -1 1 C-0.67 0.67 -0.34 0.34 0 0 Z " fill="#130C0D" transform="translate(166,103)"/>
<path d="M0 0 C4.1944205 -0.27060777 7.97542684 -0.34152439 12 1 C12 1.66 12 2.32 12 3 C11.2575 2.979375 10.515 2.95875 9.75 2.9375 C7.0951523 2.88374388 7.0951523 2.88374388 5 3.5625 C2.43990488 4.12252081 0.51673514 3.62918378 -2 3 C-1.34 2.01 -0.68 1.02 0 0 Z " fill="#0D0B0C" transform="translate(161,211)"/>
<path d="M0 0 C0.66 0.33 1.32 0.66 2 1 C0.68 2.65 -0.64 4.3 -2 6 C-1.67 6.66 -1.34 7.32 -1 8 C-1.16780163 10.69565202 -1.61155645 13.32405554 -2 16 C-2.66 15.67 -3.32 15.34 -4 15 C-4.63019694 4.84682713 -4.63019694 4.84682713 -2 1.3125 C-1.34 0.879375 -0.68 0.44625 0 0 Z " fill="#120E0F" transform="translate(160,184)"/>
<path d="M0 0 C2 2 2 2 2 3.8125 C0.46033505 7.18051709 -2.0770945 8.76117877 -5 11 C-4.67 9.02 -4.34 7.04 -4 5 C-3.34 5 -2.68 5 -2 5 C-1.7834375 4.0409375 -1.7834375 4.0409375 -1.5625 3.0625 C-1 1 -1 1 0 0 Z " fill="#2A1E27" transform="translate(139,182)"/>
<path d="M0 0 C2.475 0.495 2.475 0.495 5 1 C5 2.32 5 3.64 5 5 C3.35 5.66 1.7 6.32 0 7 C0 4.69 0 2.38 0 0 Z " fill="#1F1D1E" transform="translate(126,91)"/>
<path d="M0 0 C0.66 0.33 1.32 0.66 2 1 C2 1.33 2 1.66 2 2 C2.66 2 3.32 2 4 2 C4.33 2.99 4.66 3.98 5 5 C4.67 5.66 4.34 6.32 4 7 C-0.75 6.25 -0.75 6.25 -3 4 C-3.66 4.66 -4.32 5.32 -5 6 C-5.33 4.68 -5.66 3.36 -6 2 C-3.03 2.495 -3.03 2.495 0 3 C0 2.01 0 1.02 0 0 Z " fill="#171414" transform="translate(82,89)"/>
<path d="M0 0 C1.11375 0.4640625 1.11375 0.4640625 2.25 0.9375 C4.51138748 1.81121789 6.65335318 2.43356801 9 3 C9.66 3.33 10.32 3.66 11 4 C8.625 5.0625 8.625 5.0625 6 6 C5.34 5.67 4.68 5.34 4 5 C3.67 5.66 3.34 6.32 3 7 C0 3.375 0 3.375 0 0 Z " fill="#100E0E" transform="translate(80,65)"/>
<path d="M0 0 C1.32 0.66 2.64 1.32 4 2 C1.38485683 4.12038635 -1.19637616 6.13091744 -4 8 C-4 5 -4 5 -2 2 C-1.34 2 -0.68 2 0 2 C0 1.34 0 0.68 0 0 Z " fill="#1E1C1D" transform="translate(181,224)"/>
<path d="M0 0 C0.66 0 1.32 0 2 0 C2.33 0.66 2.66 1.32 3 2 C3.99 2.66 4.98 3.32 6 4 C2.75136475 5.08287842 2.12655906 4.85269793 -1 4 C-2.32 4 -3.64 4 -5 4 C-5.33 3.01 -5.66 2.02 -6 1 C-4.7934375 1.0309375 -4.7934375 1.0309375 -3.5625 1.0625 C-1.06645115 1.29633621 -1.06645115 1.29633621 0 0 Z M-8 2 C-6 3 -6 3 -6 3 Z " fill="#2B2929" transform="translate(108,184)"/>
<path d="M0 0 C-0.66 1.65 -1.32 3.3 -2 5 C-5 5 -5 5 -7 4 C-7.33 4.99 -7.66 5.98 -8 7 C-7.75 4.625 -7.75 4.625 -7 2 C-4.43689172 0.2058242 -3.16880694 0 0 0 Z " fill="#0E0B0D" transform="translate(88,185)"/>
<path d="M0 0 C-0.99 2.31 -1.98 4.62 -3 7 C-3.99 7 -4.98 7 -6 7 C-5.67 5.02 -5.34 3.04 -5 1 C-5.66 0.67 -6.32 0.34 -7 0 C-3.86650268 -1.04449911 -3.01031744 -0.93423645 0 0 Z " fill="#302C2D" transform="translate(116,163)"/>
<path d="M0 0 C0.33 0.99 0.66 1.98 1 3 C-0.65 3 -2.3 3 -4 3 C-4.33 4.32 -4.66 5.64 -5 7 C-5.99 6.67 -6.98 6.34 -8 6 C-7 4 -7 4 -5 1 C-5.66 0.67 -6.32 0.34 -7 0 C-3.98968256 -0.93423645 -3.13349732 -1.04449911 0 0 Z " fill="#0F080C" transform="translate(149,101)"/>
<path d="M0 0 C0.99 0.33 1.98 0.66 3 1 C0.53846154 5.8 0.53846154 5.8 -2.1875 6.8125 C-2.785625 6.874375 -3.38375 6.93625 -4 7 C-4.33 6.01 -4.66 5.02 -5 4 C-2.6875 1.9375 -2.6875 1.9375 0 0 Z " fill="#0F0B0B" transform="translate(174,96)"/>
<path d="M0 0 C0.99 0.495 0.99 0.495 2 1 C2 1.66 2 2.32 2 3 C2.66 3 3.32 3 4 3 C4.66 4.32 5.32 5.64 6 7 C7.32 7 8.64 7 10 7 C10 7.66 10 8.32 10 9 C8.35 9.33 6.7 9.66 5 10 C4.16121545 8.71186658 3.32913217 7.41936744 2.5 6.125 C2.0359375 5.40570313 1.571875 4.68640625 1.09375 3.9453125 C0 2 0 2 0 0 Z " fill="#150E0E" transform="translate(156,144)"/>
<path d="M0 0 C0.99 0 1.98 0 3 0 C3.33 1.98 3.66 3.96 4 6 C3.01 6.495 3.01 6.495 2 7 C1.34444881 9.52733235 1.34444881 9.52733235 1 12 C0.67 12 0.34 12 0 12 C0 8.04 0 4.08 0 0 Z " fill="#0E0B0D" transform="translate(118,159)"/>
<path d="M0 0 C0.80967438 2.91482778 1.21845993 4.46113217 0.0625 7.3125 C-0.4634375 8.1478125 -0.4634375 8.1478125 -1 9 C-2.4606285 6.35261084 -3 5.10551666 -3 2 C-3.99 1.67 -4.98 1.34 -6 1 C-4 0 -4 0 0 0 Z " fill="#2E1823" transform="translate(167,153)"/>
<path d="M0 0 C2.97 0.495 2.97 0.495 6 1 C5.67 1.99 5.34 2.98 5 4 C5.99 4.33 6.98 4.66 8 5 C5.3333581 6.33332095 3.83319697 5.67102033 1 5 C0.67 3.35 0.34 1.7 0 0 Z " fill="#2A2728" transform="translate(62,112)"/>
<path d="M0 0 C2.125 0.375 2.125 0.375 4 1 C2.35 2.98 0.7 4.96 -1 7 C-1.99 6.67 -2.98 6.34 -4 6 C-2.84826645 3.53199953 -1.95216435 1.95216435 0 0 Z " fill="#272324" transform="translate(189,84)"/>
<path d="M0 0 C0.5775 0.515625 1.155 1.03125 1.75 1.5625 C0.75 4.5625 0.75 4.5625 -1.25 7.5625 C-1.518125 6.799375 -1.78625 6.03625 -2.0625 5.25 C-3.19424112 2.68869116 -4.16223401 1.36557062 -6.25 -0.4375 C-3.39943397 -1.55736523 -2.65876672 -1.69865651 0 0 Z " fill="#0D0A0C" transform="translate(209.25,53.4375)"/>
<path d="M0 0 C1.09658936 3.28976808 0.79953138 4.71303767 0 8 C-1.32 8.33 -2.64 8.66 -4 9 C-4 7.02 -4 5.04 -4 3 C-3.01 3.33 -2.02 3.66 -1 4 C-0.67 2.68 -0.34 1.36 0 0 Z " fill="#0D0B0C" transform="translate(126,200)"/>
<path d="M0 0 C2.475 0.495 2.475 0.495 5 1 C5 1.66 5 2.32 5 3 C6.65 3 8.3 3 10 3 C7.24075815 4.80411967 6.11027897 5.0127245 2.75 4.625 C1.8425 4.41875 0.935 4.2125 0 4 C0 2.68 0 1.36 0 0 Z " fill="#181818" transform="translate(81,189)"/>
<path d="M0 0 C0.99 0 1.98 0 3 0 C5.5654594 2.5654594 5.54046087 4.47686668 6 8 C5.34 7.34 4.68 6.68 4 6 C3.01 6.495 3.01 6.495 2 7 C0.5393715 4.35261084 0 3.10551666 0 0 Z " fill="#151313" transform="translate(54,99)"/>
<path d="M0 0 C0.99 0 1.98 0 3 0 C3.36923077 6.52307692 3.36923077 6.52307692 1.5 8.9375 C1.005 9.288125 0.51 9.63875 0 10 C0 6.66666667 0 3.33333333 0 0 Z " fill="#251B20" transform="translate(209,57)"/>
<path d="M0 0 C1.32 0 2.64 0 4 0 C4.6875 1.8125 4.6875 1.8125 5 4 C3.5625 5.75 3.5625 5.75 2 7 C0 4 0 4 0 0 Z " fill="#252324" transform="translate(118,171)"/>
<path d="M0 0 C2.76223278 2.76223278 2.57856291 5.20706617 3 9 C1.68 9 0.36 9 -1 9 C-2.60031344 5.79937313 -1.03173691 3.27728194 0 0 Z " fill="#1F1111" transform="translate(120,136)"/>
<path d="M0 0 C0.33 0.66 0.66 1.32 1 2 C1.763125 1.835 2.52625 1.67 3.3125 1.5 C6 1 6 1 9 1 C9.33 1.66 9.66 2.32 10 3 C6.78548731 4.60725635 3.56387464 4.05748185 0 4 C0 2.68 0 1.36 0 0 Z " fill="#383636" transform="translate(126,129)"/>
<path d="M0 0 C0.66 0.33 1.32 0.66 2 1 C2.625 4.0625 2.625 4.0625 3 7 C2.34 7 1.68 7 1 7 C0.67 7.66 0.34 8.32 0 9 C-0.66 8.34 -1.32 7.68 -2 7 C-1.34 4.69 -0.68 2.38 0 0 Z " fill="#251717" transform="translate(56,72)"/>
<path d="M0 0 C0.66 0 1.32 0 2 0 C2.93423645 3.01031744 3.04449911 3.86650268 2 7 C1.01 7 0.02 7 -1 7 C-1.625 5.1875 -1.625 5.1875 -2 3 C-1.34 2.01 -0.68 1.02 0 0 Z " fill="#181717" transform="translate(64,49)"/>
<path d="M0 0 C0.66 0.99 1.32 1.98 2 3 C2.66 2.67 3.32 2.34 4 2 C3.67 3.32 3.34 4.64 3 6 C1.35 6 -0.3 6 -2 6 C-1.34 4.02 -0.68 2.04 0 0 Z " fill="#1B0E0E" transform="translate(74,33)"/>
<path d="M0 0 C0.33 0.66 0.66 1.32 1 2 C2.98 2 4.96 2 7 2 C6.01 3.32 5.02 4.64 4 6 C4 5.34 4 4.68 4 4 C2.35 4.33 0.7 4.66 -1 5 C-1 2 -1 2 0 0 Z " fill="#2A2829" transform="translate(160,230)"/>
<path d="M0 0 C2.50037734 2.17424117 3.43628586 3.73045798 4 7 C3.01 7 2.02 7 1 7 C0.34 6.34 -0.32 5.68 -1 5 C-0.625 2.375 -0.625 2.375 0 0 Z " fill="#292727" transform="translate(72,115)"/>
<path d="M0 0 C-1.65 1.32 -3.3 2.64 -5 4 C-5 3.34 -5 2.68 -5 2 C-6.98 2.99 -6.98 2.99 -9 4 C-8.1875 2.0625 -8.1875 2.0625 -7 0 C-3.86650268 -1.04449911 -3.01031744 -0.93423645 0 0 Z " fill="#373436" transform="translate(76,40)"/>
<path d="M0 0 C0.99 1.32 1.98 2.64 3 4 C0.69 4.33 -1.62 4.66 -4 5 C-4.33 3.68 -4.66 2.36 -5 1 C-3.35 0.67 -1.7 0.34 0 0 Z " fill="#221F20" transform="translate(122,28)"/>
<path d="M0 0 C0.556875 0.28875 1.11375 0.5775 1.6875 0.875 C4.08494645 2.0413253 6.51596939 3.0339881 9 4 C9 4.33 9 4.66 9 5 C7.02 5.33 5.04 5.66 3 6 C0 2.25 0 2.25 0 0 Z " fill="#211F20" transform="translate(99,226)"/>
<path d="M0 0 C0.66 0 1.32 0 2 0 C2.33 2.97 2.66 5.94 3 9 C2.01 8.67 1.02 8.34 0 8 C0 5.36 0 2.72 0 0 Z " fill="#0C0A0B" transform="translate(137,156)"/>
<path d="M0 0 C-0.33 0.99 -0.66 1.98 -1 3 C-3.31 3 -5.62 3 -8 3 C-7.67 2.01 -7.34 1.02 -7 0 C-2.25 -1.125 -2.25 -1.125 0 0 Z " fill="#211F20" transform="translate(207,51)"/>
<path d="M0 0 C0.2475 0.639375 0.495 1.27875 0.75 1.9375 C1.78813195 4.19635114 1.78813195 4.19635114 4 4.5 C4.66 4.665 5.32 4.83 6 5 C6.66 6.32 7.32 7.64 8 9 C5.36 7.68 2.72 6.36 0 5 C0 3.35 0 1.7 0 0 Z " fill="#291617" transform="translate(175,34)"/>
<path d="M0 0 C4.12751449 0.60698743 7.3321148 2.03810791 11 4 C10.67 4.66 10.34 5.32 10 6 C8.5164999 5.57742724 7.03823576 5.13643678 5.5625 4.6875 C4.73878906 4.44386719 3.91507813 4.20023438 3.06640625 3.94921875 C2.04353516 3.47935547 2.04353516 3.47935547 1 3 C0.67 2.01 0.34 1.02 0 0 Z " fill="#160F10" transform="translate(176,35)"/>
<path d="M0 0 C0.99 0.33 1.98 0.66 3 1 C3.33 2.65 3.66 4.3 4 6 C2.68 5.67 1.36 5.34 0 5 C-0.5625 3.0625 -0.5625 3.0625 -1 1 C-0.67 0.67 -0.34 0.34 0 0 Z " fill="#1E1B1D" transform="translate(156,223)"/>
<path d="M0 0 C0.33 0.66 0.66 1.32 1 2 C4.465 1.505 4.465 1.505 8 1 C7.67 1.66 7.34 2.32 7 3 C-0.41176471 4.29411765 -0.41176471 4.29411765 -3 3 C-3 2.34 -3 1.68 -3 1 C-2.01 0.67 -1.02 0.34 0 0 Z " fill="#141213" transform="translate(102,186)"/>
<path d="M0 0 C0.66 0 1.32 0 2 0 C2.66 2.31 3.32 4.62 4 7 C2.68 7.33 1.36 7.66 0 8 C0 5.36 0 2.72 0 0 Z " fill="#0F0E0E" transform="translate(133,180)"/>
<path d="M0 0 C1.98 0.66 3.96 1.32 6 2 C6 2.99 6 3.98 6 5 C3.03824877 4.38722388 1.61941217 3.74627478 -1 2 C-0.67 1.34 -0.34 0.68 0 0 Z " fill="#292828" transform="translate(149,133)"/>
<path d="M0 0 C1.32 1.32 2.64 2.64 4 4 C3.01 5.485 3.01 5.485 2 7 C1.34 7 0.68 7 0 7 C-0.38133299 5.0085944 -0.71325582 3.00720923 -1 1 C-0.67 0.67 -0.34 0.34 0 0 Z " fill="#151113" transform="translate(79,80)"/>
<path d="M0 0 C0.6875 1.75 0.6875 1.75 1 4 C-0.4375 6.25 -0.4375 6.25 -2 8 C-3.32 7.67 -4.64 7.34 -6 7 C-5.38125 6.5875 -4.7625 6.175 -4.125 5.75 C-1.93231719 3.94426121 -1.07211583 2.5909466 0 0 Z " fill="#0F0B0D" transform="translate(139,56)"/>
<path d="M0 0 C1.9375 0.8125 1.9375 0.8125 4 2 C4.33 2.99 4.66 3.98 5 5 C2.69 5 0.38 5 -2 5 C-1.01 4.01 -0.02 3.02 1 2 C0.67 1.34 0.34 0.68 0 0 Z " fill="#100D0E" transform="translate(183,224)"/>
<path d="M0 0 C-0.33 0.66 -0.66 1.32 -1 2 C-3.875 2.125 -3.875 2.125 -7 2 C-7.66 1.34 -8.32 0.68 -9 0 C-5.93109813 -1.53445094 -3.29905734 -0.54984289 0 0 Z " fill="#282626" transform="translate(111,218)"/>
<path d="M0 0 C0.66 0 1.32 0 2 0 C3 3 3 3 2.0625 5.1875 C1.5365625 6.0846875 1.5365625 6.0846875 1 7 C0.01 6.67 -0.98 6.34 -2 6 C-1.34 6 -0.68 6 0 6 C-0.33 5.01 -0.66 4.02 -1 3 C-0.67 2.01 -0.34 1.02 0 0 Z " fill="#282627" transform="translate(140,166)"/>
</svg>
