<svg version="1.2" xmlns="http://www.w3.org/2000/svg" viewBox="0 0 64 64" width="64" height="64">
	<title>noun-timer-1352295-svg</title>
	<style>
		tspan { white-space:pre } 
		.s0 { fill: #000000 } 
		.t1 { font-size: 5px;fill: #000000;font-family: "' Helvetica  Neue'" } 
	</style>
	<path id="Layer" fill-rule="evenodd" class="s0" d="m59.7 36.2c0 15.2-12.4 27.5-27.6 27.5-15.2 0-27.6-12.3-27.6-27.5 0-7 2.6-13.4 6.9-18.2l-3.4-3.7-1.1 1.1c-0.3 0.2-0.7 0.4-1.1 0.4-0.4 0-0.8-0.2-1.1-0.5-0.5-0.6-0.5-1.5 0.1-2.1l2.2-2.1q0 0 0 0 0 0 0 0l2.2-2.1c0.6-0.6 1.6-0.5 2.1 0.1 0.6 0.6 0.6 1.5 0 2.1l-1.1 1.1 3.3 3.5c4.6-4.1 10.5-6.8 17.1-7.1v-5.5h-1.5c-0.9 0-1.5-0.6-1.5-1.5 0-0.8 0.6-1.5 1.5-1.5h6c0.9 0 1.5 0.7 1.5 1.5 0 0.9-0.6 1.5-1.5 1.5h-1.5v5.5c14.5 0.7 26.1 12.8 26.1 27.5zm-3 0c0-13.6-11.1-24.6-24.6-24.6-13.6 0-24.6 11-24.6 24.6 0 13.5 11 24.5 24.6 24.5 13.5 0 24.6-11 24.6-24.5z"/>
	<path id="Layer" fill-rule="evenodd" class="s0" d="m53.1 36.2c0 11.6-9.4 21-21 21-11.6 0-21-9.4-21-21 0-11.6 9.4-21 21-21 11.6 0 21 9.4 21 21zm-12.4-8.6c0.3 0.3 0.7 0.4 1 0.4 0.4 0 0.8-0.1 1.1-0.4l1.3-1.3c0.6-0.6 0.6-1.5 0-2.1-0.6-0.6-1.6-0.6-2.1 0l-1.3 1.3c-0.6 0.5-0.6 1.5 0 2.1zm-20.6-1.3l1.3 1.3c0.3 0.3 0.7 0.4 1 0.4 0.4 0 0.8-0.1 1.1-0.4 0.6-0.6 0.6-1.5 0-2.1l-1.3-1.3c-0.6-0.6-1.5-0.6-2.1 0-0.6 0.6-0.6 1.5 0 2.1zm-0.2 9.9c0-0.8-0.6-1.5-1.5-1.5h-1.8c-0.8 0-1.5 0.7-1.5 1.5 0 0.8 0.7 1.5 1.5 1.5h1.8c0.9 0 1.5-0.7 1.5-1.5zm3.6 8.6c-0.6-0.6-1.5-0.6-2.1 0l-1.3 1.2c-0.6 0.6-0.6 1.6 0 2.2 0.3 0.3 0.7 0.4 1.1 0.4 0.4 0 0.7-0.1 1-0.4l1.3-1.3c0.6-0.6 0.6-1.5 0-2.1zm10.1 5c0-0.8-0.7-1.5-1.5-1.5-0.8 0-1.5 0.7-1.5 1.5v1.8c0 0.9 0.7 1.5 1.5 1.5 0.8 0 1.5-0.6 1.5-1.5zm0-21.8c0-0.8-0.7-1.5-1.5-1.5-0.8 0-1.5 0.7-1.5 1.5v8.2c0 0.8 0.7 1.5 1.5 1.5 0.8 0 1.5-0.7 1.5-1.5zm0-7.3c0-0.9-0.7-1.5-1.5-1.5-0.8 0-1.5 0.6-1.5 1.5v1.8c0 0.8 0.7 1.5 1.5 1.5 0.8 0 1.5-0.7 1.5-1.5zm10.5 25.3l-1.3-1.3c-0.6-0.6-1.5-0.6-2.1 0-0.6 0.6-0.6 1.5 0 2.1l1.3 1.3c0.2 0.3 0.6 0.4 1 0.4 0.4 0 0.8-0.1 1.1-0.4 0.6-0.6 0.6-1.5 0-2.1zm4.9-9.9c0-0.8-0.6-1.5-1.5-1.5h-1.8c-0.8 0-1.5 0.7-1.5 1.5 0 0.8 0.7 1.5 1.5 1.5h1.8c0.9 0 1.5-0.7 1.5-1.5z"/>
	<text id="Created by Mohamed Mb" style="transform: matrix(1,0,0,1,0,79)" >
		<tspan x="0" y="0" class="t1">Created by Mohamed Mb
</tspan>
	</text>
	<text id="from the Noun Project" style="transform: matrix(1,0,0,1,0,84)" >
		<tspan x="0" y="0" class="t1">from the Noun Project
</tspan>
	</text>
</svg>